<svg xmlns="http://www.w3.org/2000/svg" viewBox="0 0 248 133">
	<path d="M75.19,48.68l2.08-3.75H87.49l.85,3.75h6.17L89,23.17H82.83L69,48.68Zm9.39-17.29,1.75,8.13H80.16ZM45.69,48.68l1.49-8.5A2,2,0,0,1,49,38.63H60.57a1.27,1.27,0,0,1,1,.46,1.29,1.29,0,0,1,.25,1.08l-1.48,8.51h5.42l4.56-25.51H64.93l-1.48,8.51a1.89,1.89,0,0,1-.66,1.08,1.75,1.75,0,0,1-1.16.46H50.05a1.24,1.24,0,0,1-1-.46,1.32,1.32,0,0,1-.25-1.08l1.49-8.51H44.84L40.27,48.68Zm-31.86,0H36.25l1-5.41H18.66a1.21,1.21,0,0,1-1-.46,1.27,1.27,0,0,1-.25-1.09l2.08-11.59a1.91,1.91,0,0,1,.64-1.08,1.73,1.73,0,0,1,1.18-.47H39.84l1-5.41H18.39a3.51,3.51,0,0,0-2.34.91,3.65,3.65,0,0,0-1.29,2.18L11.28,45.59a2.52,2.52,0,0,0,.52,2.18A2.49,2.49,0,0,0,13.83,48.68Zm117.09,0,3.31-18.27,10.6,18.27H151l4.56-25.51h-5.42L146.83,41.8,136.24,23.17h-6.17L125.5,48.68Zm28.62-24.6a3.72,3.72,0,0,0-1.3,2.18l-3.47,19.33a2.53,2.53,0,0,0,2.55,3.09h22.41l1-5.41H162.16a1.23,1.23,0,0,1-1-.46,1.29,1.29,0,0,1-.25-1.08l.56-3.1h16.21l1-5.41H162.42l.55-3.09a2,2,0,0,1,.63-1.08,1.73,1.73,0,0,1,1.18-.47h18.55l1-5.41H161.88A3.51,3.51,0,0,0,159.54,24.08ZM193,23.17h-5.41l-4,22.42a2.53,2.53,0,0,0,2.55,3.09h22.42l1-5.41H190.93a1.22,1.22,0,0,1-1-.46,1.25,1.25,0,0,1-.25-1.08Zm-87.47,7.24,10.6,18.27h6.19l4.56-25.51h-5.42L118.11,41.8,107.52,23.17h-6.17L96.79,48.68h5.41ZM54.72,63.34l1.78-10H9.61L7.84,63.32H39.09L3,90.31l-1.78,10H48.12l1.77-10H18.54Zm154.65-4.28a4.77,4.77,0,0,0-.93-4,4.56,4.56,0,0,0-3.76-1.66H169.16a6.46,6.46,0,0,0-4.3,1.66,6.81,6.81,0,0,0-2.38,4l-6.39,35.52a4.65,4.65,0,0,0,4.69,5.68H196.3a6.47,6.47,0,0,0,4.29-1.67,6.7,6.7,0,0,0,2.38-4Zm-11.24,7.1-3.84,21.31a3.46,3.46,0,0,1-1.17,2,3.16,3.16,0,0,1-2.16.85H169.67a2.25,2.25,0,0,1-1.88-.85,2.34,2.34,0,0,1-.46-2l3.83-21.32a3.5,3.5,0,0,1,1.17-2,3.21,3.21,0,0,1,2.17-.85h21.28a2.26,2.26,0,0,1,1.88.85A2.37,2.37,0,0,1,198.13,66.16ZM65,89.46a2.34,2.34,0,0,1-.46-2l1-5.69h29.8l1.84-10H67.37l1-5.68a3.57,3.57,0,0,1,1.18-2,3.19,3.19,0,0,1,2.16-.85H105.8l1.77-9.94H66.37A6.48,6.48,0,0,0,62.07,55a6.86,6.86,0,0,0-2.38,4L53.3,94.58a4.69,4.69,0,0,0,1,4A4.6,4.6,0,0,0,58,100.26h41.2l1.78-10H66.88A2.26,2.26,0,0,1,65,89.46Zm49.45-.56a3.46,3.46,0,0,1,1.17-2,3.17,3.17,0,0,1,2.16-.86H139a2.21,2.21,0,0,1,1.81.85,2.58,2.58,0,0,1,.53,2l-2,11.37h10l2.42-13.5s-.07-.71-.21-2a3.24,3.24,0,0,0-.5-1.71,4.52,4.52,0,0,0-4-2,6.64,6.64,0,0,0,4.4-1.66,6.78,6.78,0,0,0,2.4-4l2.86-16.35a4.77,4.77,0,0,0-.93-4A4.56,4.56,0,0,0,152,53.38H116.45a6.5,6.5,0,0,0-4.3,1.66,6.86,6.86,0,0,0-2.38,4l-7.38,41.2h10Zm2.74-15.63,1.27-7.1a3.49,3.49,0,0,1,1.17-2,3.21,3.21,0,0,1,2.16-.85h21.29a2.28,2.28,0,0,1,1.88.85,2.33,2.33,0,0,1,.46,2l-1.27,7.11a3.46,3.46,0,0,1-1.21,2,3.25,3.25,0,0,1-2.13.85H119.53a2.28,2.28,0,0,1-1.88-.85A2.33,2.33,0,0,1,117.19,73.27ZM65.55,103.65H60.29a1,1,0,0,0-.63.24,1,1,0,0,0-.35.6l-1,5.25a.71.71,0,0,0,.14.59.67.67,0,0,0,.55.25h5.26a.92.92,0,0,0,.63-.25,1,1,0,0,0,.36-.59l.94-5.25a.7.7,0,0,0-.14-.6A.66.66,0,0,0,65.55,103.65Zm-1.54,5a.51.51,0,0,1-.17.29.45.45,0,0,1-.32.13H60.37a.33.33,0,0,1-.28-.13.37.37,0,0,1-.07-.29l.57-3.15a.57.57,0,0,1,.17-.3.49.49,0,0,1,.32-.12h3.15a.35.35,0,0,1,.28.12.36.36,0,0,1,.07.3Zm91-2a1.1,1.1,0,0,0-1.11,1.11,1.09,1.09,0,0,0,1.09,1.1,1.11,1.11,0,1,0,0-2.21Zm9.45-1.48a.47.47,0,0,1,.32-.12h5l.27-1.47H164a1,1,0,0,0-.64.24,1,1,0,0,0-.35.6l-.45,2.52a.68.68,0,0,0,.68.84h4.2a.35.35,0,0,1,.35.42l-.08.42a.51.51,0,0,1-.17.29.45.45,0,0,1-.32.13h-5l-.26,1.47H168a.92.92,0,0,0,.63-.25,1,1,0,0,0,.36-.59l.45-2.52a.71.71,0,0,0-.14-.59.64.64,0,0,0-.54-.25h-4.21a.31.31,0,0,1-.27-.13.33.33,0,0,1-.07-.29l.07-.42A.53.53,0,0,1,164.42,105.24Zm31.68,0a.49.49,0,0,1,.32-.12h5l.27-1.47h-6.1a1,1,0,0,0-.63.24,1.05,1.05,0,0,0-.36.6l-.94,5.25a.69.69,0,0,0,.69.84h6.1l.26-1.47h-5a.35.35,0,0,1-.35-.42l.15-.84h4.41l.27-1.47h-4.41l.15-.84A.57.57,0,0,1,196.1,105.24Zm-54.38,5.34h1.47l.43-2.41a.47.47,0,0,1,.18-.3,1.6,1.6,0,0,1,.31-.13h1.68a.79.79,0,0,0,.75-.63l.62-3.46h-1.48l-.4,2.31a.48.48,0,0,1-.18.29.43.43,0,0,1-.31.13h-3.15a.32.32,0,0,1-.28-.13.33.33,0,0,1-.07-.29l.41-2.31h-1.48l-.61,3.46a.57.57,0,0,0,.11.45.5.5,0,0,0,.41.18h1.67a.7.7,0,0,1,.28.13.34.34,0,0,1,.07.3Zm-9.27-1.68a.51.51,0,0,1,.17-.29.44.44,0,0,1,.32-.13h3.14a.32.32,0,0,1,.27.13.37.37,0,0,1,.07.29l-.3,1.68h1.48l.35-2s0-.11,0-.3a.44.44,0,0,0-.07-.25.65.65,0,0,0-.59-.29,1,1,0,0,0,.65-.25,1,1,0,0,0,.36-.59l.42-2.42a.7.7,0,0,0-.14-.6.68.68,0,0,0-.55-.24h-5.26a1,1,0,0,0-.63.24,1,1,0,0,0-.35.6l-1.1,6.09h1.48Zm.59-3.36a.57.57,0,0,1,.17-.3.49.49,0,0,1,.32-.12h3.15a.35.35,0,0,1,.28.12.36.36,0,0,1,.07.3l-.19,1a.48.48,0,0,1-.18.29.45.45,0,0,1-.31.13H133.2a.35.35,0,0,1-.35-.42Zm-3.37-1.89h-5.25a1,1,0,0,0-.63.24,1.05,1.05,0,0,0-.36.6l-.94,5.25a.69.69,0,0,0,.69.84h5.26a.92.92,0,0,0,.63-.25,1,1,0,0,0,.35-.59l1-5.25a.7.7,0,0,0-.14-.6A.68.68,0,0,0,129.67,103.65Zm-1,1.89-.57,3.15a.51.51,0,0,1-.17.29.45.45,0,0,1-.32.13H124.5a.35.35,0,0,1-.35-.42l.57-3.15a.57.57,0,0,1,.17-.3.49.49,0,0,1,.32-.12h3.15a.35.35,0,0,1,.28.12A.36.36,0,0,1,128.71,105.54Zm-13.05-1.89-.26,1.47h2.31a.35.35,0,0,1,.28.12.4.4,0,0,1,.07.3l-.91,5h1.47l.91-5a.57.57,0,0,1,.17-.3.47.47,0,0,1,.32-.12h2.31l.26-1.47Zm58.54,6.93.9-5a.53.53,0,0,1,.18-.3.47.47,0,0,1,.32-.12h2.31l.26-1.47h-6.93l-.27,1.47h2.32a.32.32,0,0,1,.27.12.36.36,0,0,1,.07.3l-.9,5Zm13.07-6.93-1.09,6.09a.65.65,0,0,0,.14.59.66.66,0,0,0,.55.25H193l.27-1.47h-5a.3.3,0,0,1-.27-.13.33.33,0,0,1-.07-.29l.9-5Zm-6.62,6.93h1.47l.43-2.41a.47.47,0,0,1,.18-.3,1.42,1.42,0,0,1,.32-.13h1.68a.76.76,0,0,0,.48-.18.7.7,0,0,0,.26-.45l.62-3.46h-1.47l-.4,2.31a.48.48,0,0,1-.18.29.47.47,0,0,1-.32.13h-3.15a.35.35,0,0,1-.35-.42l.41-2.31h-1.47l-.61,3.46a.57.57,0,0,0,.1.45.51.51,0,0,0,.41.18h1.67a.89.89,0,0,1,.29.13.38.38,0,0,1,.06.3Zm-72.92-6.69a1,1,0,0,0-.35.6l-.45,2.52a.68.68,0,0,0,.14.59.64.64,0,0,0,.54.25h4.2a.32.32,0,0,1,.28.13.33.33,0,0,1,.07.29l-.07.42a.53.53,0,0,1-.18.29.44.44,0,0,1-.32.13h-5l-.26,1.47h6.09a.94.94,0,0,0,.64-.25,1,1,0,0,0,.35-.59l.45-2.52a.7.7,0,0,0-.13-.59.67.67,0,0,0-.55-.25h-4.2a.35.35,0,0,1-.35-.42l.08-.42a.51.51,0,0,1,.17-.3.47.47,0,0,1,.32-.12h5l.26-1.47h-6.09A1,1,0,0,0,107.73,103.89Zm-64.56,2.83a1.11,1.11,0,1,0,1.1,1.11A1.1,1.1,0,0,0,43.17,106.72Zm37.49,2-2.88-5.06H76.11l-1.24,6.93h1.47l.9-5,2.88,5H81.8L83,103.65H81.57Zm-8.33,0a.51.51,0,0,1-.17.29.45.45,0,0,1-.32.13H68.69a.35.35,0,0,1-.35-.42l.91-5H67.77l-1.09,6.09a.71.71,0,0,0,.14.59.68.68,0,0,0,.56.25h5.25a.92.92,0,0,0,.63-.25,1,1,0,0,0,.36-.59l1.09-6.09H73.24Zm-44-3.57h2.31a.35.35,0,0,1,.28.12.36.36,0,0,1,.06.3l-.9,5h1.47l.91-5a.51.51,0,0,1,.17-.3.47.47,0,0,1,.32-.12h2.31l.26-1.47H28.62Zm23.16-1.23a1.05,1.05,0,0,0-.36.6L50.71,107a.71.71,0,0,0,.14.59.64.64,0,0,0,.54.25H55.6a.33.33,0,0,1,.28.13.36.36,0,0,1,.06.29l-.07.42a.48.48,0,0,1-.18.29.44.44,0,0,1-.32.13h-5l-.27,1.47h6.1a.92.92,0,0,0,.63-.25,1,1,0,0,0,.35-.59l.46-2.52a.71.71,0,0,0-.14-.59.66.66,0,0,0-.55-.25h-4.2a.33.33,0,0,1-.28-.13.37.37,0,0,1-.07-.29l.08-.42a.57.57,0,0,1,.17-.3.49.49,0,0,1,.32-.12h5l.27-1.47h-6.1A1,1,0,0,0,51.52,103.89ZM8.14,110.58H9.61l1.24-6.93H9.38Zm-5.59-5.34a.49.49,0,0,1,.32-.12h5l.26-1.47H2.08a1,1,0,0,0-.64.24,1,1,0,0,0-.35.6L.64,107a.68.68,0,0,0,.14.59.64.64,0,0,0,.54.25H5.53a.31.31,0,0,1,.27.13.33.33,0,0,1,.07.29l-.07.42a.48.48,0,0,1-.18.29.44.44,0,0,1-.32.13h-5L0,110.58H6.09a.92.92,0,0,0,.64-.25,1,1,0,0,0,.35-.59l.45-2.52a.68.68,0,0,0-.68-.84H2.65A.35.35,0,0,1,2.3,106l.08-.42A.57.57,0,0,1,2.55,105.24Zm88-1.59H84.44l-1.24,6.93h6.09a1,1,0,0,0,.64-.25,1,1,0,0,0,.35-.59l.94-5.25a.67.67,0,0,0-.69-.84Zm-1.54,5a.46.46,0,0,1-.17.29.44.44,0,0,1-.32.13H84.93l.72-4h3.57a.33.33,0,0,1,.27.12.36.36,0,0,1,.07.3Zm10.4-2a1.11,1.11,0,1,0,1.1,1.11A1.11,1.11,0,0,0,99.39,106.72Zm-85.83-1.48a.47.47,0,0,1,.32-.12h5l.26-1.47H13.09a1,1,0,0,0-.64.24,1.09,1.09,0,0,0-.35.6l-.94,5.25a.69.69,0,0,0,.69.84H17.1a.94.94,0,0,0,.64-.25,1,1,0,0,0,.35-.59l.47-2.63H17.09l-.29,1.58a.48.48,0,0,1-.18.29.44.44,0,0,1-.32.13H13.17a.32.32,0,0,1-.28-.13.33.33,0,0,1-.07-.29l.57-3.15A.57.57,0,0,1,13.56,105.24Zm11.8.72a.48.48,0,0,1-.18.29.47.47,0,0,1-.32.13H21.71a.3.3,0,0,1-.27-.13.33.33,0,0,1-.07-.29l.4-2.31H20.3l-1.24,6.93h1.47l.4-2.31a.48.48,0,0,1,.18-.29.45.45,0,0,1,.32-.13h3.15a.31.31,0,0,1,.27.13.33.33,0,0,1,.07.29l-.4,2.31H26l1.24-6.93H25.76ZM233,19.56C221.67,7,205.65,0,187.87,0A72.24,72.24,0,0,0,144,15.37h28.57a56.14,56.14,0,0,1,15.26-2.15c14,0,26.5,5.38,35.26,15.16S236,51.46,234.46,65.59c-3.25,29.67-30,53.8-59.67,53.8a49.34,49.34,0,0,1-20.2-4.19H131.71c11.15,11.25,26.33,17.41,43.08,17.41,36.18,0,68.84-29.42,72.8-65.58C249.56,49.12,244.36,32.26,233,19.56Z"/>
</svg>