<svg xmlns="http://www.w3.org/2000/svg" viewBox="0 0 85.34 100"><title>dig-the-dig</title><rect x="2.6" y="2.24" width="80.64" height="95.26" style="fill:#fff"/><path d="M46,7.56H38.29V37H46Zm9.28,28.18a17.79,17.79,0,0,0,8.55,1.79,24.35,24.35,0,0,0,7.37-1,28.55,28.55,0,0,0,7.15-3.75V20.22H64.25v6.14h6.09v2.77a15.89,15.89,0,0,1-3.18,1.51,9.67,9.67,0,0,1-2.91.44,6.31,6.31,0,0,1-5-2q-1.8-2.05-1.8-6.84,0-4.5,1.78-6.58A6,6,0,0,1,64,13.53a5.74,5.74,0,0,1,3.31.88A4.71,4.71,0,0,1,69.13,17l8.79-1.57a12.29,12.29,0,0,0-2.4-4.72,9.51,9.51,0,0,0-4-2.74,22.57,22.57,0,0,0-7.3-.89,19,19,0,0,0-8.07,1.43,12.89,12.89,0,0,0-5.83,5.42,16.93,16.93,0,0,0-2,8.39,17.57,17.57,0,0,0,1.82,8.13A12.17,12.17,0,0,0,55.25,35.74ZM27,36.23a9.71,9.71,0,0,0,4.11-2.35,12.12,12.12,0,0,0,3-4.36,19.74,19.74,0,0,0,1.08-7.33,21.63,21.63,0,0,0-.73-5.71,12.89,12.89,0,0,0-2.33-4.72,10.51,10.51,0,0,0-4.07-3.12,16.28,16.28,0,0,0-6.46-1.08H8.07V37H21.61A21.29,21.29,0,0,0,27,36.23Zm-9.85-5.89V14.23h2.27q3.54,0,5.07,1.73t1.53,6.41a14,14,0,0,1-.68,5.12,4.33,4.33,0,0,1-1.89,2.21,9.29,9.29,0,0,1-4.07.64ZM38.25,92.43h7.68V63H38.25ZM64.61,75.62v6.13h6.1v2.78A16.42,16.42,0,0,1,67.53,86a9.74,9.74,0,0,1-2.92.44,6.34,6.34,0,0,1-5-2q-1.8-2.06-1.8-6.84c0-3,.59-5.2,1.78-6.58a5.94,5.94,0,0,1,4.77-2.08,5.74,5.74,0,0,1,3.31.88,4.72,4.72,0,0,1,1.84,2.55l8.79-1.57a12.2,12.2,0,0,0-2.41-4.71,9.41,9.41,0,0,0-4-2.74,22.59,22.59,0,0,0-7.31-.89,19,19,0,0,0-8.06,1.43,12.89,12.89,0,0,0-5.83,5.42,16.9,16.9,0,0,0-2,8.39,17.53,17.53,0,0,0,1.82,8.12,12.19,12.19,0,0,0,5.13,5.33,17.79,17.79,0,0,0,8.55,1.79,24.39,24.39,0,0,0,7.37-1,29.41,29.41,0,0,0,7.15-3.75V75.62ZM32.1,67.16A10.42,10.42,0,0,0,28,64,16.26,16.26,0,0,0,21.57,63H8V92.43H21.57a21.42,21.42,0,0,0,5.43-.8,9.74,9.74,0,0,0,4.1-2.35,12,12,0,0,0,3-4.36,19.77,19.77,0,0,0,1.08-7.33,21.63,21.63,0,0,0-.73-5.71A12.81,12.81,0,0,0,32.1,67.16ZM25.33,82.89a4.33,4.33,0,0,1-1.89,2.21,9.45,9.45,0,0,1-4.06.63H17.14V69.63h2.28q3.52,0,5.06,1.73T26,77.77A14,14,0,0,1,25.33,82.89ZM59.71,55.37V59.6h18V39.8H59.38v4.48H71v3.91H60.53v4H71v3.14ZM15.27,39.8V54.71H8.41V59.6H28.84V54.71H22V39.8ZM52.81,59.6V39.8H46.06v8H38.72v-8H32V59.6h6.72V52.67h7.34V59.6Z" style="fill:#231f20"/><path d="M0,0V100H85.34V0ZM81.26,4.08V95.64H4.08V4.08Z" style="fill:#ed1c24"/></svg>