<svg xmlns="http://www.w3.org/2000/svg" viewBox="0 0 70.54 100"><title>enemy-books</title><path d="M56.67,33.54A11.72,11.72,0,0,0,54.19,30a20.17,20.17,0,0,0-7.55-4.57c-.06.57-.75,1.17-1.54,1.53a9.93,9.93,0,0,1-4.31.76q1,3.59,2.27,7.13Q49.84,34.11,56.67,33.54ZM47.41,46c3.86-1.26,7.28-3.18,9-5.77a6.26,6.26,0,0,0,1-3.91q-6.7.54-13.36,1.27c.14.39.28.78.43,1.17C45.38,41.16,46.36,43.58,47.41,46ZM25.75,28.19c-2.63,2.62-3.58,5.9-2.64,9,0,.13.08.25.13.38q7-1.08,14.08-2c-1.07-3.09-2-6.2-2.84-9.33C31.2,25.75,27.84,26.11,25.75,28.19Zm44.44-8.9C63,13.27,52.75,9.45,40.88,8.76c-1.19-.07-2.38-.11-3.56-.13h0a84.51,84.51,0,0,0,1.51,11.13C51,19.8,62.69,25.2,65.55,32.86c1.55-.11,3.09-.21,4.64-.3ZM41.83,47.18c-1.09-2.48-2.09-5-3-7.48l-.54-1.47q-6.84.84-13.61,1.87C27.79,44.32,34.53,47.76,41.83,47.18Zm-27.71-13c.56-3.42,3.6-7.84,9.87-10.48a12,12,0,0,0-4.36.93,8.21,8.21,0,0,1,4.28-3.12A34.34,34.34,0,0,1,33,19.8,58.86,58.86,0,0,1,31.86,11c0-.41,2.28-2.22,3.35-2.44-7.26.21-15.91,1.57-22,4.4A39.89,39.89,0,0,0,.36,22.24V41.71c4.7-1,9.45-1.91,14.22-2.75A9.41,9.41,0,0,1,14.12,34.19ZM70.19,35.4l-4.07.25C66.27,42,58.33,47.13,49,49.49A125.64,125.64,0,0,0,55,60.8c5.62-1.33,11.42-3.31,15.18-6.37Zm0,24.19a83.32,83.32,0,0,1-13.48,3.93c.79,1.3,1.23,1.17,1.61,1.75.24.36-.16,3.5-1.69,3.76H70.19Zm-13.93,13a.56.56,0,0,0,.45-.55c0-.59-.67-.63-.75-.63H50.6v12.9c0,.75,0,.87-.68,1.09a.57.57,0,0,0-.45.55c0,.59.67.63.75.63H56c.08,0,.75,0,.75-.63a.57.57,0,0,0-.45-.55c-.71-.22-.69-.34-.69-1.09V73.71C55.57,73,55.55,72.84,56.26,72.62ZM70.19,10.36V0H.36V14.38c1.07-.6,2.18-1.17,3.34-1.72C22.22,4,50.8,2.22,70.19,10.36ZM42.27,76.57h0v6.84c-.33,2.53-1.62,1.74-1.62,2.61,0,.63.83.59,1,.59H44c.23,0,1.06,0,1.06-.59,0-.87-1.3-.08-1.63-2.61V79.92ZM10.7,56.73c10.79,4.93,25.57,7,38.7,5.13a124.37,124.37,0,0,1-6-11.3,43.73,43.73,0,0,1-4.39.35c-10.19.29-19.27-3.74-23.08-9.38Q8.06,42.91.36,44.59v5A33.14,33.14,0,0,0,10.7,56.73ZM47.12,86.61,49.69,78V74.3h0l-.91,3.37h0l-2.17-6.23H41.38c-.25,0-.85,0-.85.63s.54.53.79.55.42.26.6.56a3.81,3.81,0,0,1,.37.88l4.24,12.55Zm16.73-14c.22-.14.45-.31.45-.61,0-.65-.67-.61-1.12-.61h-5c-.42,0-1.07,0-1.07.59,0,.34.2.45.46.59a1.43,1.43,0,0,1,.59.85l3.06,7.26v3.61c0,.75,0,.87-.69,1.09a.57.57,0,0,0-.44.55c0,.59.67.63.75.63h5.74c.08,0,.75,0,.75-.63a.57.57,0,0,0-.45-.55c-.71-.22-.69-.34-.69-1.09V79.65l-2.51-5.74a2.05,2.05,0,0,1-.21-.77C63.46,72.86,63.63,72.78,63.85,72.66ZM10.36,75.54c.1.3.21.5.55.5.61,0,.63-.38.63-.48V71.44H7v1.18A3.87,3.87,0,0,1,10.36,75.54ZM7,79.47a2.19,2.19,0,0,1,1.42,1.79c.1.34.22.67.65.67.62,0,.52-.73.52-.9V76.65c0-.16.1-.89-.52-.89-.43,0-.55.32-.65.67A2.17,2.17,0,0,1,7,78.21Zm0,7.14h4.66V82.55a.57.57,0,0,0-.59-.68c-.36,0-.48.32-.63.62A4.13,4.13,0,0,1,7,85.43ZM69.51,71.44H67.26c-.49,0-1.32-.1-1.32.63s1.38.38,1.38,1.6A2.37,2.37,0,0,1,67,74.75L66,77.1l.65,1.44,2-4.36A2.24,2.24,0,0,1,70,72.7c.28-.12.5-.27.5-.61C70.54,71.48,70,71.44,69.51,71.44ZM.36,100H70.19V89.1H.36Zm65.3-8.73a4.41,4.41,0,0,1,1.2.33c.22,0,.21-.3.43-.3s.25.29.25.36v1.45c0,.2,0,.41-.29.41s-.28-.16-.3-.33a1.77,1.77,0,0,0-1.29-1.42Zm-.38,0v.5a.77.77,0,0,0-.6.69c0,.42.23.68,1.24,1.07,1.51.58,1.84,1.37,1.84,2.16a2.25,2.25,0,0,1-2.35,2.2V97.4c.41-.13.76-.32.77-.79s-.61-.75-1-.93c-1.07-.45-2.06-.94-2.06-2.27A2.09,2.09,0,0,1,65.28,91.27ZM63.1,95.86c0-.18,0-.42.27-.42a.32.32,0,0,1,.31.28A2,2,0,0,0,65,97.4v.49c-.74,0-.91-.31-1.21-.31s-.25.28-.46.28-.26-.32-.26-.36ZM51.3,91.92c-.14-.06-.26-.09-.26-.26s.24-.26.41-.26h1.46c.2,0,.45,0,.45.28s-.16.26-.32.32a2.35,2.35,0,0,0-1.14,1l-.16.23,1.37,3.59c.08.18.1.33.3.42s.2.11.2.27-.28.23-.45.23H51c-.2,0-.45,0-.45-.26s.35-.23.35-.42a1,1,0,0,0-.07-.25l-.53-1.59a1.79,1.79,0,0,1-.11-.51.71.71,0,0,1,.2-.44l1-1.4a.9.9,0,0,0,.22-.54A.43.43,0,0,0,51.3,91.92Zm-3.77,0a.24.24,0,0,1-.19-.23c0-.24.29-.26.32-.26h2.41s.31,0,.31.26a.23.23,0,0,1-.19.23c-.29.1-.28.15-.28.46v4.46c0,.32,0,.37.28.46a.23.23,0,0,1,.19.23c0,.25-.28.26-.31.26H47.66s-.32,0-.32-.26a.24.24,0,0,1,.19-.23c.3-.09.29-.14.29-.46V92.35C47.82,92,47.83,92,47.53,91.89ZM35.72,97.4a.57.57,0,0,0,.43-.62v-4.4a.56.56,0,0,0-.43-.61v-.5c1.8.16,2.65,1.62,2.65,3.31s-.85,3.15-2.65,3.31Zm-.38-6.13v.5a.57.57,0,0,0-.44.61v4.4a.58.58,0,0,0,.44.62v.49c-1.81-.16-2.65-1.62-2.65-3.31S33.53,91.43,35.34,91.27ZM20.77,97.4a.57.57,0,0,0,.43-.62v-4.4a.56.56,0,0,0-.43-.61v-.5c1.8.16,2.65,1.62,2.65,3.31s-.85,3.15-2.65,3.31Zm-.38-6.13v.5a.57.57,0,0,0-.44.61v4.4a.58.58,0,0,0,.44.62v.49c-1.81-.16-2.65-1.62-2.65-3.31S18.58,91.43,20.39,91.27Zm-14.67,6c.57,0,.64-.35.64-.66V95.52c0-.39-.09-.76-.64-.8v-.5c.62,0,.64-.41.64-.73v-.85a.66.66,0,0,0-.64-.75V91.4H6a3.51,3.51,0,0,1,1.57.25A1.38,1.38,0,0,1,8.39,93c0,.93-.78,1.37-1.61,1.49v0c1,.15,1.7.57,1.7,1.63a1.5,1.5,0,0,1-.8,1.38A3.16,3.16,0,0,1,6,97.76H5.72ZM3,91.89a.23.23,0,0,1-.19-.23.25.25,0,0,1,.27-.26H5.34v6.36H3.05a.24.24,0,0,1-.27-.26A.23.23,0,0,1,3,97.27c.29-.09.28-.14.28-.46V92.35C3.25,92,3.26,92,3,91.89ZM25,75.11c0-2.9,1.66-2.13,1.66-3.06,0-.57-.67-.61-.87-.61H23c-.2,0-.87,0-.87.61,0,.93,1.66.16,1.66,3.06V78L25,80h0ZM6.1,86.61V71.44H.75c-.08,0-.75,0-.75.63a.56.56,0,0,0,.45.55c.71.22.69.34.69,1.09V84.34c0,.75,0,.87-.69,1.09A.57.57,0,0,0,0,86c0,.59.67.63.75.63ZM38,75.54c.1.3.2.5.55.5.6,0,.62-.38.62-.48V71.44H34.62v1.18A3.89,3.89,0,0,1,38,75.54ZM34.62,86.61h4.67V82.55a.57.57,0,0,0-.59-.68c-.37,0-.49.32-.63.62a4.15,4.15,0,0,1-3.45,2.94Zm-9.63,0V81.7l-5.9-10.26H13.87c-.42,0-1,0-1,.63,0,.45.26.53.61.65.67.22.77.53,1.09,1.09L22,86.61Zm9.63-7.14A2.17,2.17,0,0,1,36,81.26c.1.34.22.67.65.67.63,0,.53-.73.53-.9V76.65c0-.16.1-.89-.53-.89-.43,0-.55.32-.65.67a2.16,2.16,0,0,1-1.42,1.78ZM54,68.86q-1.51-2.14-2.92-4.34c-16.78,2.5-36.51,1.66-50.7-5V69H54.67C54.58,69,54,68.93,54,68.86ZM28.05,85.43a.58.58,0,0,0-.45.55c0,.59.67.63.76.63h5.35V71.44H28.36c-.09,0-.76,0-.76.63a.57.57,0,0,0,.45.55c.71.22.69.34.69,1.09V84.34C28.74,85.09,28.76,85.21,28.05,85.43ZM14.46,75.25h0v8.16C14.1,85.94,12.8,85.15,12.8,86c0,.63.83.59,1,.59h2.31c.23,0,1.06,0,1.06-.59,0-.87-1.3-.08-1.62-2.61V77.28Z"/></svg>