<svg xmlns="http://www.w3.org/2000/svg" viewBox="0 0 100 21.8"><title>hiphopgods</title><path d="M41.38,6c-3.5,0-6.16,2.25-6.09,5.81,0,2.59,1.81,4.07,4.53,4.07,3.52,0,6.16-2.2,6.09-5.81C45.87,7.48,44.09,6,41.38,6Zm-1.31,7.6A2,2,0,0,1,38,11.38a3.11,3.11,0,0,1,3.13-3.12,1.94,1.94,0,0,1,2.11,2.16A3.1,3.1,0,0,1,40.07,13.58ZM21.75,6.21H17.18l-1.65,9.42h2.66l.44-2.54h1.91c2.88,0,4.45-1.86,4.45-4C25,7.52,24,6.21,21.75,6.21Zm-.81,4.63H19l.41-2.41h1.91C22.84,8.43,22.52,10.75,20.94,10.84Zm10.91-1H28.46l.62-3.57H26.41l-1.65,9.41h2.66l.64-3.56h3.38l-.63,3.56h2.64L35.1,6.23H32.47ZM12.94,6.21l-1.65,9.42h2.65l1.65-9.42Zm-4.22,0L8.11,9.8H4.72l.62-3.57H2.67L1,15.64H3.68l.63-3.56H7.7l-.63,3.56H9.71l1.65-9.41Zm63.61,2a3.19,3.19,0,0,0-3.2,3.12,1.94,1.94,0,0,0,2,2.21,3.21,3.21,0,0,0,3.25-3.18A1.91,1.91,0,0,0,72.33,8.26ZM71.3,13a1.5,1.5,0,0,1-1.57-1.7A2.47,2.47,0,0,1,72.2,8.87a1.48,1.48,0,0,1,1.61,1.66A2.48,2.48,0,0,1,71.3,13Zm26.8-6.8A5.85,5.85,0,0,0,94,4.79c-2.63,0-4.55,1-5.38,2.62A4.65,4.65,0,0,0,88,6.53a5.32,5.32,0,0,0-4-1.48H78l-.43,2.06A4.65,4.65,0,0,0,77,6.4a5.74,5.74,0,0,0-4.23-1.57,7.64,7.64,0,0,0-5.48,2.1L67,6.58a5.21,5.21,0,0,0-4.34-1.86A7.33,7.33,0,0,0,55.57,9c0-1.55-1-2.82-3.24-2.82H47.76l-1.65,9.42h2.66l.45-2.54h1.9a4.38,4.38,0,0,0,3.9-2,5.27,5.27,0,0,0,1.11,4.19,5.52,5.52,0,0,0,4.28,1.76,6.83,6.83,0,0,0,5.51-2.36l0,0a4.63,4.63,0,0,0,.59.75A5.79,5.79,0,0,0,70.84,17a7.79,7.79,0,0,0,5-1.62l-.3,1.39H82a7.66,7.66,0,0,0,5-1.53l.51.44A6.73,6.73,0,0,0,92,17.05c3.62,0,5.84-1.69,5.93-4.53a3.43,3.43,0,0,0-.54-2h.39L98,9.6c.08-.39.17-.81.25-1.22s.16-.75.23-1.11l.14-.64ZM51.53,10.84H49.62L50,8.43h1.91C53.42,8.43,53.1,10.75,51.53,10.84ZM65.61,9.6H63.37l.16-1.16a2.8,2.8,0,0,0-1.36-.3,3.17,3.17,0,0,0-3.31,3.28c-.07,1.83,1,2.25,2.16,2.25a3.18,3.18,0,0,0,1.73-.51l.2-.85h-2.3L61,10.45h4.63L65,14.05a5.75,5.75,0,0,1-4.57,1.87c-2.83,0-4.68-1.81-4.22-4.85.49-3.29,3.12-5.19,6.46-5.19a4.09,4.09,0,0,1,3.44,1.43Zm5.23,6.27c-2.73,0-4.54-1.47-4.45-4.06C66.52,8.24,69.25,6,72.76,6c2.72,0,4.46,1.49,4.37,4C77,13.68,74.38,15.87,70.84,15.87ZM82,15.64H76.93l.45-2.11h1l1.1-5.24h-1l.43-2.09H84c2.9,0,4.19,1.74,4.11,3.9C88,13.17,86.3,15.64,82,15.64ZM96.83,9.36H94.52l.2-1.1a4.15,4.15,0,0,0-1.16-.14c-.54,0-1.48.17-1.51.91,0,.54.57.69,1.42.78,1.64.18,3.35.83,3.29,2.67-.08,2.42-2.16,3.41-4.78,3.41a5.62,5.62,0,0,1-3.78-1.07l.51-2.59H91l-.19,1.12a4.17,4.17,0,0,0,1.56.27c1,0,1.66-.35,1.68-.93,0-.41-.48-.64-1.43-.73-1.7-.16-3.36-.77-3.3-2.67C89.42,6.82,91.7,6,94,6A4.79,4.79,0,0,1,97.31,7C97.15,7.78,97,8.6,96.83,9.36Zm-25,1.15a.5.5,0,0,0-.5.49.3.3,0,0,0,.32.34.49.49,0,0,0,.5-.49A.3.3,0,0,0,71.86,10.51Zm11.67-2.1H82.14l-1.06,5h1.38a3,3,0,0,0,3-3.05A1.72,1.72,0,0,0,83.53,8.41Z" style="fill:#ffc70d"/><polygon points="96.76 21.8 0 21.8 0.43 19.26 97.19 19.26 96.76 21.8" style="fill:#231f20"/><polygon points="99.57 2.54 2.81 2.54 3.24 0 100 0 99.57 2.54" style="fill:#231f20"/></svg>