<svg xmlns="http://www.w3.org/2000/svg" viewBox="0 0 100 55.15"><title>madurgency</title><path d="M6.67.26h3v10H7.72V3.49c0-.19,0-.46,0-.81s0-.63,0-.82l-1.9,8.39h-2L1.93,1.86c0,.19,0,.46,0,.82s0,.62,0,.81v6.76H0V.26H3L4.86,8.12Z"/><path d="M14.46.26h2.37l3.53,10H18.1L17.44,8.2H13.76l-.68,2.05H10.89Zm-.14,6.22h2.56L15.62,2.54Z"/><path d="M27.49.47A3.43,3.43,0,0,1,29.2,1.74a4.69,4.69,0,0,1,.71,1.62A8.2,8.2,0,0,1,30.1,5a6.68,6.68,0,0,1-.8,3.38,3.63,3.63,0,0,1-3.36,1.86H21.63V.26h4.31A5.52,5.52,0,0,1,27.49.47ZM23.66,2V8.52h1.93a2.09,2.09,0,0,0,2.07-1.46A5.2,5.2,0,0,0,28,5.15a4.82,4.82,0,0,0-.47-2.34A2,2,0,0,0,25.59,2Z"/><path d="M31.66.26h2.13V6.4A3.5,3.5,0,0,0,34,7.9a1.61,1.61,0,0,0,1.65.84,1.6,1.6,0,0,0,1.64-.84,3.5,3.5,0,0,0,.24-1.5V.26h2.13V6.4a5.13,5.13,0,0,1-.5,2.48c-.61,1.09-1.78,1.63-3.51,1.63s-2.9-.54-3.52-1.63a5.13,5.13,0,0,1-.5-2.48Z"/><path d="M48.1.52a2.47,2.47,0,0,1,.94.69,3.59,3.59,0,0,1,.5.84,2.91,2.91,0,0,1,.18,1.06,3,3,0,0,1-.36,1.4,2,2,0,0,1-1.18,1,1.88,1.88,0,0,1,1,.79,3.3,3.3,0,0,1,.29,1.56V8.5a4.87,4.87,0,0,0,0,.93.82.82,0,0,0,.39.57v.25H47.58c-.06-.22-.11-.4-.14-.53a4.91,4.91,0,0,1-.08-.86l0-.93A1.93,1.93,0,0,0,47,6.65a1.7,1.7,0,0,0-1.19-.32h-2v3.92h-2V.26h4.78A4.23,4.23,0,0,1,48.1.52ZM43.78,2V4.68H46a2.59,2.59,0,0,0,1-.16,1.14,1.14,0,0,0,.59-1.13,1.25,1.25,0,0,0-.58-1.22,2,2,0,0,0-1-.18Z"/><path d="M58.44,3.38A1.91,1.91,0,0,0,57.28,2a2.8,2.8,0,0,0-1.14-.23,2.52,2.52,0,0,0-2,.91,4.18,4.18,0,0,0-.77,2.74A3.41,3.41,0,0,0,54.22,8a2.76,2.76,0,0,0,1.91.76,2.47,2.47,0,0,0,1.72-.6,2.57,2.57,0,0,0,.83-1.58H56.37V4.89h4.16v5.36H59.15L58.94,9a4.47,4.47,0,0,1-1.09,1,3.8,3.8,0,0,1-2,.51,4.27,4.27,0,0,1-3.26-1.37,5.28,5.28,0,0,1-1.32-3.79,5.57,5.57,0,0,1,1.34-3.89A5.13,5.13,0,0,1,59.17,1,3.56,3.56,0,0,1,60.5,3.38Z"/><path d="M69.92,2H64.63V4.15h4.85V5.89H64.63V8.46h5.53v1.79H62.59V.26h7.33Z"/><path d="M71.76.26H74l4,7v-7h2v10H77.77L73.7,3.16v7.09H71.76Z"/><path d="M82.78,1.3a4.67,4.67,0,0,1,6.72.42,3.63,3.63,0,0,1,.68,1.87H88.09a2.84,2.84,0,0,0-.51-1.09,2.06,2.06,0,0,0-1.65-.65,2,2,0,0,0-1.76.92,4.48,4.48,0,0,0-.65,2.6,4,4,0,0,0,.68,2.52,2.14,2.14,0,0,0,1.73.84A2,2,0,0,0,87.57,8a3.23,3.23,0,0,0,.52-1.16h2.07a4.51,4.51,0,0,1-1.37,2.66,4,4,0,0,1-2.83,1,4.24,4.24,0,0,1-3.35-1.38,5.56,5.56,0,0,1-1.22-3.81A5.52,5.52,0,0,1,82.78,1.3Z"/><path d="M97.55.26h2.37L96.58,6.51v3.74H94.49V6.51L91,.26h2.46l2.08,4.35Z"/><path d="M.11,13.78H5.42V34.62H18.11v4.57H.11Z"/><path d="M41.24,36.93q-2.88,3-8.32,3t-8.33-3q-3.86-3.63-3.86-10.48T24.59,16c1.92-2,4.7-3,8.33-3s6.4,1,8.32,3q3.84,3.49,3.85,10.48T41.24,36.93Zm-3.32-3.86a10.37,10.37,0,0,0,1.86-6.62,10.38,10.38,0,0,0-1.86-6.61,6,6,0,0,0-5-2.34,6.16,6.16,0,0,0-5,2.33A10.31,10.31,0,0,0,26,26.45a10.31,10.31,0,0,0,1.88,6.62,6.16,6.16,0,0,0,5,2.33A6.05,6.05,0,0,0,37.92,33.07Z"/><path d="M66.22,21.71a5,5,0,0,0-2.95-3.64,7.23,7.23,0,0,0-2.91-.57,6.36,6.36,0,0,0-5,2.32q-2,2.31-2,7c0,3.12.71,5.32,2.14,6.62a7,7,0,0,0,4.86,1.94,6.32,6.32,0,0,0,4.38-1.53,6.57,6.57,0,0,0,2.1-4H60.94V25.55H71.53V39.19H68L67.48,36a12.42,12.42,0,0,1-2.76,2.54,9.81,9.81,0,0,1-5.17,1.28,10.76,10.76,0,0,1-8.28-3.49q-3.36-3.52-3.36-9.62t3.4-9.88a11.56,11.56,0,0,1,9-3.72,11.77,11.77,0,0,1,7.78,2.45,9.15,9.15,0,0,1,3.37,6.13Z"/><path d="M96.16,36.93q-2.88,3-8.33,3t-8.32-3q-3.87-3.63-3.87-10.48T79.51,16c1.92-2,4.69-3,8.32-3s6.41,1,8.33,3Q100,19.47,100,26.45T96.16,36.93Zm-3.32-3.86a10.43,10.43,0,0,0,1.85-6.62,10.44,10.44,0,0,0-1.85-6.61,6.07,6.07,0,0,0-5-2.34,6.14,6.14,0,0,0-5,2.33,10.31,10.31,0,0,0-1.88,6.62,10.31,10.31,0,0,0,1.88,6.62,6.57,6.57,0,0,0,10,0Z"/><path d="M8.9,46.5a2.38,2.38,0,0,0-1.4-1.73,3.47,3.47,0,0,0-1.38-.27,3,3,0,0,0-2.4,1.1,5,5,0,0,0-.94,3.31,4.08,4.08,0,0,0,1,3.15A3.29,3.29,0,0,0,6.11,53a3,3,0,0,0,2.08-.72,3.2,3.2,0,0,0,1-1.91H6.39v-2h5v6.48H9.75L9.5,53.3a5.54,5.54,0,0,1-1.31,1.21,4.63,4.63,0,0,1-2.46.61A5.09,5.09,0,0,1,1.8,53.46,6.32,6.32,0,0,1,.2,48.89a6.74,6.74,0,0,1,1.61-4.7,5.51,5.51,0,0,1,4.27-1.77,5.56,5.56,0,0,1,3.7,1.17,4.32,4.32,0,0,1,1.6,2.91Z"/><path d="M23.14,53.74a5.29,5.29,0,0,1-4,1.41,5.26,5.26,0,0,1-4-1.41,6.52,6.52,0,0,1-1.84-5,6.41,6.41,0,0,1,1.84-5,5.26,5.26,0,0,1,4-1.41,5.29,5.29,0,0,1,4,1.41,6.44,6.44,0,0,1,1.82,5A6.55,6.55,0,0,1,23.14,53.74ZM21.56,51.9a4.89,4.89,0,0,0,.88-3.14,4.94,4.94,0,0,0-.88-3.15,2.88,2.88,0,0,0-2.38-1.11,2.93,2.93,0,0,0-2.4,1.11,4.94,4.94,0,0,0-.89,3.15,4.89,4.89,0,0,0,.89,3.14A2.93,2.93,0,0,0,19.18,53,2.88,2.88,0,0,0,21.56,51.9Z"/><path d="M35.82,44.87H29.43v2.57H35.3v2.1H29.43v3.1h6.69v2.17H27V42.73h8.86Z"/><path d="M39.9,51.08a2.42,2.42,0,0,0,.46,1.24,2.68,2.68,0,0,0,2.15.75,4.64,4.64,0,0,0,1.48-.2,1.41,1.41,0,0,0,1.08-1.4,1,1,0,0,0-.53-.93A5.71,5.71,0,0,0,42.87,50l-1.31-.29a8.11,8.11,0,0,1-2.65-.92,3,3,0,0,1-1.22-2.62,3.47,3.47,0,0,1,1.19-2.69,5.09,5.09,0,0,1,3.51-1.08,5.41,5.41,0,0,1,3.3,1,3.6,3.6,0,0,1,1.43,2.94H44.7a1.77,1.77,0,0,0-1-1.55,3.34,3.34,0,0,0-1.5-.3,2.89,2.89,0,0,0-1.6.39A1.25,1.25,0,0,0,40,46a1.05,1.05,0,0,0,.59,1,7.35,7.35,0,0,0,1.61.5l2.12.5a5.56,5.56,0,0,1,2.09.87,3,3,0,0,1,1.08,2.47A3.48,3.48,0,0,1,46.23,54a5.42,5.42,0,0,1-3.62,1.09,5.89,5.89,0,0,1-3.75-1.07,3.58,3.58,0,0,1-1.37-3Z"/><path d="M53.92,54.81V42.73h2.51v4.61h4.69V42.73h2.51V54.81H61.12V49.42H56.43v5.39Z"/><path d="M75,44.87H68.6v2.57h5.87v2.1H68.6v3.1h6.69v2.17H66.13V42.73H75Z"/><path d="M85,43.05a2.94,2.94,0,0,1,1.13.84,3.64,3.64,0,0,1,.61,1A3.35,3.35,0,0,1,87,46.18a3.63,3.63,0,0,1-.43,1.69A2.45,2.45,0,0,1,85.09,49a2.31,2.31,0,0,1,1.18,1,4,4,0,0,1,.35,1.89v.81a6.77,6.77,0,0,0,.06,1.12,1,1,0,0,0,.47.69v.3H84.36c-.07-.27-.13-.48-.16-.65a6.9,6.9,0,0,1-.11-1V52a2.32,2.32,0,0,0-.4-1.54,2,2,0,0,0-1.44-.38H79.78v4.73H77.31V42.73h5.78A5.1,5.1,0,0,1,85,43.05Zm-5.21,1.78v3.25h2.71a2.93,2.93,0,0,0,1.22-.2,1.36,1.36,0,0,0,.71-1.36A1.55,1.55,0,0,0,83.73,45a2.54,2.54,0,0,0-1.17-.21Z"/><path d="M98.3,44.87H91.91v2.57h5.87v2.1H91.91v3.1H98.6v2.17H89.44V42.73H98.3Z"/></svg>