<svg xmlns="http://www.w3.org/2000/svg" viewBox="0 0 100 33.88"><title>rapstation</title><path d="M17.19,13.66a7.53,7.53,0,0,0-7.58,7.57,7.28,7.28,0,0,0,2.19,5.41,7.47,7.47,0,0,0,5.47,2.16,7,7,0,0,0,1.22-.12l0-5.26c-.52,0-.87,0-1.35,0a1.93,1.93,0,0,1-1.44-.59,2.15,2.15,0,0,1,1.55-3.6,1.86,1.86,0,0,1,1.51.69,2.82,2.82,0,0,1,.56,1.83v6.74h5.45V21.36a7.68,7.68,0,0,0-2-5.64A7.49,7.49,0,0,0,17.19,13.66Zm-10.87,0a6,6,0,0,0-4.6,1.88,7.12,7.12,0,0,0-1.72,5v8H5.46v-6.9c0-1.51.49-2.27,1.48-2.27l1.93,0V13.72A23.33,23.33,0,0,0,6.32,13.64Zm27.27,0a7.67,7.67,0,0,0-3.19.71,7.22,7.22,0,0,0-2.56,1.93,8.19,8.19,0,0,0-1.75,5.44V33.88h5.46V21.94c0-1.93.7-2.9,2.1-2.9a2.07,2.07,0,0,1,1.5.61,2,2,0,0,1,.63,1.46,2.09,2.09,0,0,1-.61,1.49,1.94,1.94,0,0,1-1.45.63H32.37V28.7a14.3,14.3,0,0,0,1.46.1,7.13,7.13,0,0,0,5.25-2.25,7.31,7.31,0,0,0,2.22-5.34,7.19,7.19,0,0,0-2.24-5.36A7.5,7.5,0,0,0,33.59,13.66ZM38.22,4.9a15.56,15.56,0,0,0-5.88.15A1.25,1.25,0,1,0,33,7.46a12.68,12.68,0,0,1,4.83-.11,9.34,9.34,0,0,1,7.32,6,1.26,1.26,0,0,0,1.15.76,1.33,1.33,0,0,0,.48-.1,1.24,1.24,0,0,0,.66-1.63A11.84,11.84,0,0,0,38.22,4.9Zm-3.5,4.31a1.24,1.24,0,0,0,.34,2.46,6.56,6.56,0,0,1,5.57,2.79,1.25,1.25,0,0,0,1,.47,1.21,1.21,0,0,0,.78-.28,1.24,1.24,0,0,0,.19-1.74A9,9,0,0,0,34.72,9.21ZM52,11.11C48.88,3.31,43.15.89,38.89.23a21.37,21.37,0,0,0-8.5.46,1.24,1.24,0,0,0-.83,1.55,1.22,1.22,0,0,0,1.54.83,19,19,0,0,1,7.49-.37c5.23.83,8.94,4,11,9.32a1.24,1.24,0,0,0,1.16.79,1.2,1.2,0,0,0,.45-.09A1.24,1.24,0,0,0,52,11.11Z" style="fill:#00cfff"/><path d="M71.82,24a2.76,2.76,0,0,1-.38-1.68h1.71v-4H71.44v-3.9H67.62v8.36a6.2,6.2,0,0,0,.88,3.5,4.93,4.93,0,0,0,1.84,1.63,5.22,5.22,0,0,0,2.45.6h.44v-4A1.75,1.75,0,0,1,71.82,24Zm-10.4-6.06a5.28,5.28,0,0,0-5.31,5.3A5.11,5.11,0,0,0,57.64,27a5.22,5.22,0,0,0,3.83,1.51,4.51,4.51,0,0,0,.86-.08V24.51a1.73,1.73,0,0,1-.93.27,1.36,1.36,0,0,1-1-.41,1.43,1.43,0,0,1-.4-1,1.45,1.45,0,0,1,.44-1,1.43,1.43,0,0,1,1-.44,1.29,1.29,0,0,1,1.06.48,2,2,0,0,1,.39,1.29v4.72h3.82v-5a5.37,5.37,0,0,0-1.42-3.95A5.21,5.21,0,0,0,61.42,17.94ZM53.93,24a2.69,2.69,0,0,1-.39-1.68h1.72v-4H53.54v-3.9H49.72v8.36a6.28,6.28,0,0,0,.88,3.5,5,5,0,0,0,1.85,1.63,5.18,5.18,0,0,0,2.44.6h.44v-4A1.73,1.73,0,0,1,53.93,24Zm-9.3-4.62a3.26,3.26,0,0,0-.86,1.26,9.73,9.73,0,0,0-.29,2.19A2.07,2.07,0,0,1,43,24.18a1.86,1.86,0,0,1-1.31.38h-.18v4.05h.53a6.07,6.07,0,0,0,3-.64,5,5,0,0,0,2.29-4.17,1.93,1.93,0,0,1,.38-1.18,1.52,1.52,0,0,1,1.11-.31v-4H47.74A4.26,4.26,0,0,0,44.63,19.38Zm40.06-1.45a5.35,5.35,0,0,0-3.88,1.53,5,5,0,0,0-1.58,3.76A5.1,5.1,0,0,0,80.81,27a5.22,5.22,0,0,0,3.79,1.55A5.15,5.15,0,0,0,88.38,27a5.28,5.28,0,0,0,0-7.49A5,5,0,0,0,84.69,17.93Zm.94,6.39a1.43,1.43,0,0,1-2.08,0,1.6,1.6,0,0,1,0-2.17,1.45,1.45,0,0,1,2.1,0,1.57,1.57,0,0,1,0,2.17ZM99,19.52a4.57,4.57,0,0,0-6.73-.22,4.62,4.62,0,0,0-1.32,3.35v5.68h3.82V22.58c0-.59.24-.88.72-.88s.72.29.72.88v5.75H100V23A5.19,5.19,0,0,0,99,19.52ZM74.41,28.33h3.82V18.15H74.41ZM76.33,13.6a1.84,1.84,0,0,0-1.34.55,1.8,1.8,0,0,0,0,2.6,1.9,1.9,0,0,0,1.37.51,1.93,1.93,0,0,0,1.38-.51,1.82,1.82,0,0,0,0-2.6A1.87,1.87,0,0,0,76.33,13.6Z"/></svg>