<svg xmlns="http://www.w3.org/2000/svg" xmlns:xlink="http://www.w3.org/1999/xlink" viewBox="0 0 70.13 100"><defs><linearGradient id="a" x1="35.08" x2="35.08" y2="74.06" gradientUnits="userSpaceOnUse"><stop offset="0" stop-color="#2e368f"/><stop offset="0.14" stop-color="#4468a9"/><stop offset="0.3" stop-color="#5c9ec5"/><stop offset="0.43" stop-color="#6ac0d6"/><stop offset="0.5" stop-color="#70cddd"/><stop offset="0.62" stop-color="#5dbbd6"/><stop offset="0.87" stop-color="#2c8dc4"/><stop offset="1" stop-color="#1072ba"/></linearGradient></defs><title>spitifly</title><path d="M0,0V73.25c0,1.08,2.18.45,2.18.45C31.38,65.5,34.56,46,34.56,46S40.91,68.09,68,73.7c.42.09,2.18.87,2.18-.2V0Z" style="fill:url(#a)"/><path d="M38.88,47.72S50.49,51.52,58.52,42c10.59-12.49-2.14-28.89-4.92-29.27-6.47-.87-18.35,21.34-18.45,28A8,8,0,0,0,38.88,47.72ZM31,47.79a8,8,0,0,0,3.73-7c-.1-6.62-12-28.83-18.45-28-2.78.37-15.51,16.77-4.92,29.27C19.36,51.59,31,47.79,31,47.79ZM41,21.5a.78.78,0,1,0,.93-1.24c-.06-.05-6.93-5.08-14,0a.77.77,0,0,0,.45,1.4.8.8,0,0,0,.45-.14A10.46,10.46,0,0,1,41,21.5Zm-9.5,4a6.48,6.48,0,0,1,6.92,0,.65.65,0,0,0,.34.11.62.62,0,0,0,.52-.28.63.63,0,0,0-.17-.86,7.73,7.73,0,0,0-8.29,0,.62.62,0,0,0-.18.86A.63.63,0,0,0,31.5,25.52ZM25.23,18a.94.94,0,0,0,.61-.22c9-7.82,17.84-.35,18.22,0a.92.92,0,0,0,1.31-.09.94.94,0,0,0-.09-1.31c-.11-.09-10.45-8.87-20.66,0a.92.92,0,0,0-.09,1.31A.89.89,0,0,0,25.23,18Zm7.59,11.49a.45.45,0,0,0,.29-.1,2.88,2.88,0,0,1,3.63-.06.46.46,0,0,0,.58-.72,3.78,3.78,0,0,0-4.8.06.47.47,0,0,0-.06.65A.46.46,0,0,0,32.82,29.53Zm9.1,28.1a34.31,34.31,0,0,1-6.26-12,.78.78,0,0,0-.58-.58l-.07,0a.78.78,0,0,0-.94.58,34,34,0,0,1-6.15,11.77C23.51,63.07,14.69,70.4,0,72.92v1.57a3.43,3.43,0,0,0,.8,0C16,71.79,24.62,64.22,29.21,58.34a38.25,38.25,0,0,0,5.65-10,38.39,38.39,0,0,0,5.78,10.18c4.66,6,13.47,13.63,28.93,16.29l.55.07V73.33C55.2,70.76,46.42,63.35,41.92,57.63Z" style="fill:#231f20"/><path d="M57.53,38a.8.8,0,0,0-1.08.36C54.52,42.18,50.12,44,50.08,44a.8.8,0,0,0-.46,1,.82.82,0,0,0,.76.52.79.79,0,0,0,.29-.06c.2-.08,5-2,7.23-6.42A.81.81,0,0,0,57.53,38ZM19.78,44.19s-4.43-1.76-6.36-5.63a.81.81,0,1,0-1.45.72c2.2,4.42,7,6.34,7.22,6.42a.79.79,0,0,0,.29.06.81.81,0,0,0,.3-1.57Z" style="fill:#fff"/><path d="M30.57,80.25a3.21,3.21,0,0,0,4.22-.84,23.49,23.49,0,0,0,2.3-4s-5.15-.33-6.8,1.81A2.19,2.19,0,0,0,30.57,80.25Zm7.1-4.86a20.09,20.09,0,0,0,2.16,4A3.2,3.2,0,0,0,44,80.2a2.19,2.19,0,0,0,.28-3C42.68,75,37.67,75.39,37.67,75.39ZM8.07,83.88c-2.13-.25-4-.68-4-2.23,0-1.32,1.2-2.37,3.69-2.37a5.1,5.1,0,0,1,4.22,2l2.67-1.38c-1.35-2.74-4.22-3.53-7-3.53C4.41,76.39.8,77.89.8,81.55c0,4,3.36,5,7,5.38,2.36.26,4.12.95,4.12,2.62,0,1.94-2,2.67-4.09,2.67s-4.22-.86-5-2.82L0,90.85c1.32,3.25,4.12,4.37,7.76,4.37,4,0,7.47-1.7,7.47-5.67C15.24,85.31,11.78,84.34,8.07,83.88ZM23.14,82a5,5,0,0,0-4.07,2l-.2-1.73H16V100h3.1V93.29c.89,1.37,2.85,1.78,4.17,1.78,4,0,6.33-2.9,6.33-6.56A6.27,6.27,0,0,0,23.14,82Zm-.23,10.12a3.47,3.47,0,0,1-3.56-3.56A3.4,3.4,0,0,1,22.91,85a3.4,3.4,0,0,1,3.56,3.56A3.47,3.47,0,0,1,22.91,92.07Zm7.5,2.69h3.1V82.18h-3.1Zm8.36-4.42V84.93h1.6V82.26H38.79V79a2.68,2.68,0,0,1-3.1,0v3.23H34.31v2.67h1.38v5.41c0,3.13,2,4.68,4.68,4.58l0-2.8A1.55,1.55,0,0,1,38.77,90.34Zm2.61,4.42h3.1V82.18h-3.1ZM51,79.33l-.21-2.66A4.54,4.54,0,0,0,46,81.57V94.76h3.11V85.13H51V82.41H49.08v-.84C49.08,80.05,49.89,79.33,51,79.33Zm1.49,15.43h3.08V77H52.45ZM66.69,82.23,64.4,87.72l-1.3,3.46-1.19-3.53L60,82.23H56.39l5,12.33L59.06,100h3.41l7.65-17.77Z" style="fill:#00508f"/></svg>