<svg xmlns="http://www.w3.org/2000/svg" viewBox="0 0 100 22.67"><title>spitslam</title><path d="M18.1,10.35c-.08-.35-.55-.54-.64-.58a2.1,2.1,0,0,0-.48,0,3.73,3.73,0,0,0-.78.36,2.5,2.5,0,0,0-1.26,1.94,6.64,6.64,0,0,1-.57,3A9.47,9.47,0,0,1,13.05,17a1,1,0,0,1-1,.39,2,2,0,0,1-1.1-.67c-.18-.26,3-5.78,3.35-6.23A5.07,5.07,0,0,1,15.54,9.3L16.11,9h0l.49-.2a2.14,2.14,0,0,0,.29-.32c.11-.15,0-.36,0-.61a5,5,0,0,0-.72-1,2.85,2.85,0,0,0-.57-.58,1.94,1.94,0,0,0-.69.13,8.61,8.61,0,0,0-7-2.47c-.49.05-1.33.17-1.34.16a1.75,1.75,0,0,1-.38-.43.65.65,0,0,0-.65-.13,9.86,9.86,0,0,0-1.19.51c-.21.13-1.8,1.27-2.07,1.51a1.09,1.09,0,0,0-.18.85,1.7,1.7,0,0,0,.23.42,3.27,3.27,0,0,0,.7.5,2.54,2.54,0,0,0,.6.26,2.38,2.38,0,0,0,1.7-.14,6.53,6.53,0,0,1,2.93-1,9.49,9.49,0,0,1,2.3.19,1.05,1.05,0,0,1,.85.71,2,2,0,0,1,0,1.28c-.13.29-6.52.26-7.08.18a5.16,5.16,0,0,1-1.66-.51,5.64,5.64,0,0,1-.52-.36h0L1.7,7.59a2,2,0,0,0-.43-.09c-.19,0-.32.16-.51.33A5.23,5.23,0,0,0,.21,9,3.06,3.06,0,0,0,0,9.75c0,.09.25.34.45.53a8.59,8.59,0,0,0,1.36,7.28c.28.4.8,1.07.8,1.08a2.17,2.17,0,0,1-.17.55.64.64,0,0,0,.21.63,9.43,9.43,0,0,0,1,.78c.21.11,2,.92,2.34,1a1.07,1.07,0,0,0,.83-.27A1.63,1.63,0,0,0,7.1,21a3.1,3.1,0,0,0,.08-.86,2.14,2.14,0,0,0-.08-.65,2.31,2.31,0,0,0-1-1.41,6.43,6.43,0,0,1-2.35-2,9.91,9.91,0,0,1-1-2.08A1.06,1.06,0,0,1,3,12.85a2,2,0,0,1,1.13-.62c.31,0,3.52,5.52,3.73,6.05A5.21,5.21,0,0,1,8.23,20a5.78,5.78,0,0,1-.05.63h0l-.07.52a2.22,2.22,0,0,0,.13.41c.08.18.3.2.54.28a5.06,5.06,0,0,0,1.27-.1,3,3,0,0,0,.78-.2c.08,0,.16-.39.23-.66A8.65,8.65,0,0,0,16.69,16c.2-.45.52-1.24.53-1.24a1.82,1.82,0,0,1,.56-.12c.3,0,.41-.39.44-.5a9.67,9.67,0,0,0,.16-1.28C18.37,12.66,18.18,10.7,18.1,10.35Zm-7.47,2.47a1.81,1.81,0,0,1-.9,1.76l-.31.12a1.81,1.81,0,1,1-.79-3.5A1.81,1.81,0,0,1,10.63,12.82Z" style="fill:#fbb040"/><path d="M40.4,20.31a1.3,1.3,0,0,0,.13-.7,1.07,1.07,0,0,0-.24-.79,1.12,1.12,0,0,0-.81-.23H37.76v3.6h.41V20.73h1.36q.54,0,.54.63v.83h.41v-.92c0-.44-.19-.67-.57-.7h0A.68.68,0,0,0,40.4,20.31Zm-1.06.08H38.17V18.93h1.31a.73.73,0,0,1,.54.15,1.11,1.11,0,0,1,.12.63.67.67,0,0,1-.17.54A1,1,0,0,1,39.34,20.39Zm55.79.72c0,.34-.06.56-.18.64a1.74,1.74,0,0,1-.88.13,1.56,1.56,0,0,1-.82-.13c-.11-.08-.16-.3-.16-.64V18.59h-.41v2.64A.9.9,0,0,0,93,22a2.09,2.09,0,0,0,1.12.21A2.12,2.12,0,0,0,95.26,22a1.12,1.12,0,0,0,.27-.9V18.59h-.4ZM48.91,22.67h.37v-4.5h-.37Zm-5-4.08H42.21v3.6H44a1,1,0,0,0,1-.39,3.28,3.28,0,0,0,.25-1.57,2.11,2.11,0,0,0-.28-1.3A1.27,1.27,0,0,0,43.88,18.59Zm.74,3c-.12.17-.4.26-.83.26H42.61V18.93h1.26c.41,0,.67.09.78.26a2.89,2.89,0,0,1,.16,1.24A2.24,2.24,0,0,1,44.62,21.59Zm-19.48.6h2.32v-.34H25.55V20.5h1.83v-.34H25.55V18.93h1.91v-.34H25.14Zm-1.66-1.88a1.3,1.3,0,0,0,.13-.7,1.07,1.07,0,0,0-.24-.79,1.13,1.13,0,0,0-.82-.23H20.84v3.6h.4V20.73h1.37q.54,0,.54.63v.83h.41v-.92c0-.44-.19-.67-.57-.7h0A.7.7,0,0,0,23.48,20.31Zm-1.06.08H21.24V18.93h1.32a.73.73,0,0,1,.54.15,1.11,1.11,0,0,1,.12.63.71.71,0,0,1-.17.54A1,1,0,0,1,22.42,20.39Zm9,.81q0,.45-.18.57a2.07,2.07,0,0,1-.9.11c-.5,0-.8-.08-.88-.26a6.21,6.21,0,0,1-.13-1.78c0-.44.06-.71.19-.8a2.18,2.18,0,0,1,1.06-.15,1,1,0,0,1,.64.13c.1.08.14.27.14.56v.11h.4v-.1a1.11,1.11,0,0,0-.24-.83,1.47,1.47,0,0,0-.93-.21,2.51,2.51,0,0,0-1.32.22.76.76,0,0,0-.32.43,8.62,8.62,0,0,0,0,1.18,3,3,0,0,0,.24,1.52c.17.22.55.33,1.15.33A2.57,2.57,0,0,0,31.57,22c.17-.12.25-.43.25-.92V21h-.4Zm68.35-2.38a1.18,1.18,0,0,0-.83-.23H97.3v3.6h.4V20.77h1.2a1.24,1.24,0,0,0,.87-.23,1.19,1.19,0,0,0,.23-.84A1.3,1.3,0,0,0,99.78,18.82Zm-.34,1.48a1.52,1.52,0,0,1-.77.13h-1v-1.5H99a.76.76,0,0,1,.55.14,1.26,1.26,0,0,1,.11.66C99.61,20,99.56,20.22,99.44,20.3ZM34.68,18.55a2.06,2.06,0,0,0-1.21.26,1.24,1.24,0,0,0-.32,1v.6a3,3,0,0,0,.24,1.54q.26.3,1.29.3t1.29-.3a3.15,3.15,0,0,0,.24-1.59A2.69,2.69,0,0,0,36,18.85C35.79,18.65,35.36,18.55,34.68,18.55Zm1.15,1.84a3,3,0,0,1-.15,1.3c-.1.13-.43.19-1,.19s-.9-.06-1-.19a3,3,0,0,1-.15-1.3,3,3,0,0,1,.15-1.31c.1-.12.43-.19,1-.19a1.81,1.81,0,0,1,.94.16c.14.11.2.36.2.76v.58Zm34-1.8h-.41v3.6h2.26v-.38H69.8Zm16.68,1.72a1.41,1.41,0,0,0,.13-.7,1.07,1.07,0,0,0-.24-.79,1.13,1.13,0,0,0-.82-.23H83.84v3.6h.4V20.73H85.6c.37,0,.55.21.55.63v.83h.41v-.92c0-.44-.2-.67-.58-.7h0A.7.7,0,0,0,86.48,20.31Zm-1.06.08H84.24V18.93h1.32a.68.68,0,0,1,.53.15,1,1,0,0,1,.13.63.71.71,0,0,1-.17.54A1,1,0,0,1,85.42,20.39Zm-22-.09h0a.71.71,0,0,0,.46-.76,1,1,0,0,0-.21-.77,1.38,1.38,0,0,0-.86-.18H61.2v3.6H63a1.08,1.08,0,0,0,.78-.23,1.17,1.17,0,0,0,.23-.81A.76.76,0,0,0,63.41,20.3Zm-1.8-1.37h1.18a1,1,0,0,1,.56.11c.09.07.13.23.13.47s0,.46-.15.54a1.12,1.12,0,0,1-.65.12H61.61Zm1.84,2.79a1,1,0,0,1-.61.12H61.61V20.51h1a1.71,1.71,0,0,1,.79.11c.09.08.14.27.14.6A.68.68,0,0,1,63.45,21.72Zm2,.47h2.31v-.34H65.88V20.5h1.83v-.34H65.88V18.93h1.91v-.34H65.48ZM80.69,20.4v.34h1.15c0,.11,0,.19,0,.22a1.26,1.26,0,0,1-.15.78,1.49,1.49,0,0,1-.81.14,2.16,2.16,0,0,1-1.05-.15c-.13-.11-.2-.39-.2-.84v-1a1.33,1.33,0,0,1,.17-.84,1.46,1.46,0,0,1,.88-.17,2.45,2.45,0,0,1,1,.11q.18.11.18.54v.09h.4v-.14a.88.88,0,0,0-.27-.77,2.63,2.63,0,0,0-1.18-.17,2,2,0,0,0-1.22.26,1.42,1.42,0,0,0-.3,1.07v.85A1.85,1.85,0,0,0,79.54,22a1.84,1.84,0,0,0,1.22.28A2.12,2.12,0,0,0,82,22a1.92,1.92,0,0,0,.24-1.21c0-.17,0-.3,0-.39Zm-5.51,2.27h.37v-4.5h-.37ZM57.84,18.59l-1.32,3.6H57l.28-.76h1.82l.28.76h.42l-1.34-3.6Zm-.5,2.53.79-2.2.8,2.2ZM89.6,18.55a2.06,2.06,0,0,0-1.21.26,1.24,1.24,0,0,0-.32,1v.6a2.93,2.93,0,0,0,.25,1.54q.25.3,1.29.3c.7,0,1.12-.1,1.29-.3a3.15,3.15,0,0,0,.24-1.59,2.69,2.69,0,0,0-.25-1.49C90.71,18.65,90.28,18.55,89.6,18.55Zm1.15,1.84a3,3,0,0,1-.15,1.3c-.1.13-.43.19-1,.19s-.91-.06-1-.19a3,3,0,0,1-.15-1.3,3,3,0,0,1,.15-1.31c.09-.12.43-.19,1-.19a1.81,1.81,0,0,1,.94.16c.14.11.2.36.2.76v.58Zm-37.21-1.8h-.41v3.6h2.26v-.38H53.54ZM68,4.9H65.74V16.54h7.67v-2H68ZM53.74,5H44.87V6.23h3.79V16.65H50V6.23h3.76Zm-25,5.79a7.06,7.06,0,0,0-3.45-.69,7.92,7.92,0,0,1-2.79-.42C22.14,9.49,22,8.91,22,8s.2-1.38.6-1.62A6.1,6.1,0,0,1,25.25,6a4,4,0,0,1,2.2.38c.32.25.47.85.47,1.78h1.31c0-1.35-.27-2.24-.8-2.65A6.15,6.15,0,0,0,25,4.89a6,6,0,0,0-3.43.67,3.19,3.19,0,0,0-.86,2.65q0,2.86,3,3.07l1.3.06,1.36.07a2.45,2.45,0,0,1,1.48.42,2,2,0,0,1,.36,1.42c0,1.1-.18,1.78-.52,2a6,6,0,0,1-2.78.38,4.78,4.78,0,0,1-2.45-.38c-.32-.25-.48-.9-.48-1.94v-.29h-1.3v.52a3.09,3.09,0,0,0,.83,2.56,6,6,0,0,0,3.34.64q2.91,0,3.75-.63c.57-.43.85-1.35.85-2.78S29.19,11.18,28.7,10.8ZM97.6,6.74l0,.86,0,.87c0,.64,0,1.22,0,1.72v6.35h2.21V4.9H96L94,10.3c-.15.4-.33.93-.54,1.61l-.26.8-.24.8h-.08l-.27-.8-.25-.81c-.23-.7-.42-1.24-.56-1.61L89.68,4.9h-3.6V16.54h2.21V10.19c0-.47,0-1-.05-1.69l0-.86,0-.84h.07l.26.8.27.81c.23.72.42,1.26.56,1.61l2.58,6.52h2L96.46,10c.13-.34.32-.88.56-1.61l.25-.81.27-.81ZM40.1,8.61a4.17,4.17,0,0,0-.72-2.84A3.65,3.65,0,0,0,36.69,5H31.37V16.65h1.31V12.06h3.87a4.08,4.08,0,0,0,2.8-.72A3.78,3.78,0,0,0,40.1,8.61Zm-1.81,1.94a4.88,4.88,0,0,1-2.5.4H32.68V6.12h4c.93,0,1.51.15,1.76.44a3.85,3.85,0,0,1,.37,2.14C38.84,9.67,38.66,10.28,38.29,10.55Zm5-5.54H42V16.65h1.32ZM80.79,4.9H77.48L73.61,16.54h2.33l.73-2.24h5l.74,2.24h2.29Zm-3.6,7.77,2-6.06,2,6.06ZM63.32,10.48A6.91,6.91,0,0,0,60,9.74a8.91,8.91,0,0,1-2.59-.34Q57,9.18,57,8.08a1.32,1.32,0,0,1,.48-1.22,4.67,4.67,0,0,1,2-.29,3.51,3.51,0,0,1,1.69.25,1.7,1.7,0,0,1,.43,1.23s0,.13,0,.24H63.8V7.85a2.74,2.74,0,0,0-.91-2.43,6.84,6.84,0,0,0-3.54-.62,6.88,6.88,0,0,0-3.69.67,3.22,3.22,0,0,0-.93,2.72c0,1.33.26,2.2.77,2.6a7.29,7.29,0,0,0,3.53.77l1.22.07a2.43,2.43,0,0,1,1.34.34,1.5,1.5,0,0,1,.31,1.12c0,.76-.13,1.25-.41,1.46a3.55,3.55,0,0,1-1.89.32,5.7,5.7,0,0,1-2.33-.28c-.28-.18-.42-.68-.42-1.49v-.25H54.69v.43A3.2,3.2,0,0,0,55.6,16c.6.45,1.81.67,3.64.67,2,0,3.35-.23,3.95-.68s.9-1.45.9-3A3.08,3.08,0,0,0,63.32,10.48Zm-4.23-9h1.62V2.77H61V0h-.31V1.22H59.09V0h-.31V2.77h.31Zm5,1H62.58v-1H64V1.21H62.58V.26h1.47V0H62.27V2.77h1.78Zm-7.59.26h.31V.29h.9V0H55.56V.29h.9Z" style="fill:#58595b"/></svg>