<svg xmlns="http://www.w3.org/2000/svg" viewBox="0 0 100 91"><title>spitburg-pirates</title><path d="M92.54,29.12a5.86,5.86,0,0,0-.9-.14,4.82,4.82,0,0,0-.76,0A43.83,43.83,0,0,0,51,3.34a42.64,42.64,0,0,0-4.83.27,10.28,10.28,0,0,0-1.41-1.68A5.74,5.74,0,0,0,41,0a5.41,5.41,0,0,0-4.41,2.51,8.18,8.18,0,0,0-1.31,3.73A43.93,43.93,0,0,0,9.15,34.11a8.63,8.63,0,0,0-2.54.07A11.15,11.15,0,0,0,2.15,36l-.07.05A3.47,3.47,0,0,0,.65,39.52,3.3,3.3,0,0,0,2,41.74a2.92,2.92,0,0,0,2.17.48,3.57,3.57,0,0,0,1.39-.64l.64-.39a6.7,6.7,0,0,1,.69-.37l.39.15a.65.65,0,0,0,0,.13,6.79,6.79,0,0,0-.36,3.8v0l-.45.27,0,0A13.7,13.7,0,0,0,.29,53.53,8.16,8.16,0,0,0,.1,56.94a5.75,5.75,0,0,0,3.57,4.42l0,0a8.59,8.59,0,0,0,3.2.59A12.86,12.86,0,0,0,9,61.78l.63-.14a40.63,40.63,0,0,0,1.72,4.2l-.25,1,.68-.12c.46.91.94,1.79,1.45,2.66-2.12,1.87-2.37,2.27-2.5,3.11L10.49,74l2.28,1.81,1.35-.54q1.2-.47,2.52-.84A43.83,43.83,0,0,0,94.8,48.65c.13-.37.24-.74.33-1.08l.28-1L100,27.8ZM39.13,4.29A2.76,2.76,0,0,1,40.75,3.1,2.68,2.68,0,0,1,42.49,4l.08.09,0,0c-1.31.25-2.61.57-3.88.94A3.58,3.58,0,0,1,39.13,4.29Z" style="fill:#231f20"/><path d="M51,6.62A40.73,40.73,0,1,0,91.69,47.35,40.77,40.77,0,0,0,51,6.62Zm0,79.32a38.6,38.6,0,1,1,38.6-38.59A38.63,38.63,0,0,1,51,85.94Zm0-67.41A28.7,28.7,0,1,0,79.62,47.22,28.72,28.72,0,0,0,50.93,18.53Zm0,55.89a27.2,27.2,0,1,1,27.19-27.2A27.23,27.23,0,0,1,50.93,74.42Z" style="fill:#eab649"/><path d="M50.94,86A38.76,38.76,0,1,1,89.7,47.28,38.8,38.8,0,0,1,50.94,86Zm0-76.28A37.52,37.52,0,1,0,88.47,47.28,37.56,37.56,0,0,0,50.94,9.76Z" style="fill:#ed1c24"/><path d="M51.49,28.77a5.87,5.87,0,0,0,.44-.66L52,28l-.64-2.42a7.19,7.19,0,0,0,1.42.45l.92.19-.2-.92c-.41-1.82-4-17.85-4.87-19.35s-2.74-1.71-3.55-1.8a15,15,0,0,0-1.66-1.87l-.17-.12a4.48,4.48,0,0,0-2.06-.85A3.8,3.8,0,0,0,37.73,3a7.36,7.36,0,0,0-1.11,4.93c.2,1.17,5.13,21.84,5.34,22.72l0,.2.18.1.28.13,9.24,32.46,1.68,3.82,0,.08a2.85,2.85,0,0,0,.78.69l.87,1.93,0,.06a1.56,1.56,0,0,0,.63.53l.68,2L58,72.36l-.28-2.2a1.49,1.49,0,0,0,.3-.92l-.16-2.08a4.47,4.47,0,0,0,.35-.72l0-.07v-4.6ZM51.56,22c.2.85.38,1.68.56,2.47a1.87,1.87,0,0,1-.77-.43A5.48,5.48,0,0,1,51.56,22Zm-4-15.51c.41.67,1.73,6,3,11.45L47.71,7.23a1.44,1.44,0,0,0-1.4-1l-.05-.17V6s-.08-.2-.23-.49A2.63,2.63,0,0,1,47.61,6.53ZM37.51,7.79a6.52,6.52,0,0,1,1-4.26,3,3,0,0,1,2.58-1.38,3.6,3.6,0,0,1,1.73.73l.06,0a16,16,0,0,1,1.09,1.17l.21.75c.64,2.35.77,2.68,1.37,2.6l.16,0,5.24,19.89-8.21,2.54C41.87,26.35,37.7,8.82,37.51,7.79Zm13,20.7a6.93,6.93,0,0,1-3.06,2.37,6.46,6.46,0,0,1-4-.35l7.06-2.18ZM57,71.69l-.31-.93h.08l.14,0,.13,1Zm-.18-1.88-.43.12a.69.69,0,0,1-.54-.26l-.53-1.16h.23a2.83,2.83,0,0,0,.63-.07,2.34,2.34,0,0,0,.87-.41l.1,1.25A.59.59,0,0,1,56.82,69.81Zm.54-3.59a3.3,3.3,0,0,1-.27.52L55,67.35l-.42,0a2,2,0,0,1-.38-.34l-1.62-3.69-9.05-31.8a8.67,8.67,0,0,0,2.68.48,5.3,5.3,0,0,0,1.62-.24,7.5,7.5,0,0,0,3-2.1l6.57,32.19Z" style="fill:#fff"/><path d="M57.69,61.93l-7.06-34L43,30.39l9.31,33.12L54,67.25a2.06,2.06,0,0,0,.65.66l1,2.14a.91.91,0,0,0,1.08.38c.85-.23.75-.78.75-.78l-.07-2.59h0a2.93,2.93,0,0,0,.24-.66Z" style="fill:#bcbec0"/><path d="M57.18,70.29l-.88.2.39,1.31.67-.16ZM47.49,30.65a8.41,8.41,0,0,0,3.71-2.53L45.55,6.37a2.26,2.26,0,0,1,2,1l3.84,14.46a5.31,5.31,0,0,0-.39,2.4c.25.7,2,1.05,2,1.05s-3.89-17.5-4.77-19c-.76-1.25-2.91-1.47-3.5-1.51a10.11,10.11,0,0,0-1.31-1.45,8.14,8.14,0,0,0-2.55-1.41c-.7-.13-1.64.29-2.56,1.61A6.29,6.29,0,0,0,37.47,8c.2,1.17,5.37,22.66,5.37,22.66A8.1,8.1,0,0,0,47.49,30.65ZM55,62.12l-1.21.27L46.69,32a9.67,9.67,0,0,1-1.93-.08l8.32,31.24,2.05-.51Zm-1.86,1.34L55,67.58l1.28-.21-1-4.39Z" style="fill:#231f20"/><path d="M57.08,61.68,50.37,30.14a7.08,7.08,0,0,1-1.22.95c-.49.23,7.26,30.82,7.26,30.82Zm-.54.78.11,4.74L57.1,67l0-4.74ZM55.68,68l.73,1.85.68-.18L57,67.68ZM50.24,28.23S44.56,6.76,44.05,5.63A5.72,5.72,0,0,0,41.21,3S48,29.69,48.36,29.58A5.09,5.09,0,0,0,50.24,28.23ZM39.52,4.9s0-1.75,0-1.75A7.38,7.38,0,0,0,38.13,5.7a9,9,0,0,0-.26,1.21S39,5.09,39.52,4.9ZM38.15,8.19l5.3,21.73.81.13L38.66,7.94Z" style="fill:#fff"/><path d="M33.38,39.67a3.45,3.45,0,0,0,1.21.2,5.06,5.06,0,0,0,.76-.06,5.8,5.8,0,0,0,2.29-1h0a4.13,4.13,0,0,0,1.72-2.29,2.39,2.39,0,0,0,0-1A2,2,0,0,0,38,33.91a3.66,3.66,0,0,0-2-.14,5.77,5.77,0,0,0-2.29,1A4.21,4.21,0,0,0,32,37v0a2.4,2.4,0,0,0,0,1A2,2,0,0,0,33.38,39.67Zm.52-2.16a2.34,2.34,0,0,1,1-1.16,3.8,3.8,0,0,1,1.51-.67,1.85,1.85,0,0,1,.95,0,.32.32,0,0,1,.15.08.14.14,0,0,1,0,.06.3.3,0,0,1,0,.16v0a2.26,2.26,0,0,1-1,1.2,3.68,3.68,0,0,1-1.5.62,1.78,1.78,0,0,1-1,0c-.12,0-.16-.08-.16-.1A.62.62,0,0,1,33.9,37.51Zm-22.06,11-.42-1-1,.56a12.26,12.26,0,0,0-3.13,2.4A8.62,8.62,0,0,0,5.57,54v0a3.84,3.84,0,0,0-.06,1.47,3,3,0,0,0,1,1.85A2.5,2.5,0,0,0,8.16,58,2.61,2.61,0,0,0,8.64,58a4.89,4.89,0,0,0,2.6-1.4A5.21,5.21,0,0,0,12.78,54a4.94,4.94,0,0,0,.13-2.57A18.94,18.94,0,0,0,11.84,48.51Zm-.95,5.05a3.3,3.3,0,0,1-1,1.62,3,3,0,0,1-1.58.88.58.58,0,0,1-.53-.14,1.12,1.12,0,0,1-.36-.72,2,2,0,0,1,0-.71,6.62,6.62,0,0,1,1.34-2.78,8.43,8.43,0,0,1,1.67-1.4A11.37,11.37,0,0,1,11,51.79,3.08,3.08,0,0,1,10.89,53.56ZM92.73,30.64l0,.13a3.83,3.83,0,0,0-1.19-.26,6.52,6.52,0,0,0-3.42.95,10.75,10.75,0,0,0-3.52,4.21A14.72,14.72,0,0,0,83.29,41v.11a6.51,6.51,0,0,1-.61.5l.74-3a1.76,1.76,0,0,0,0-.89,2.53,2.53,0,0,0-1.67-2.07l-9-3.2L69.92,43.77l-.12.08,2.25-9.42-6.11,1,0-.08L59.4,36.54l-1.88,7.57c-.07.27-.12.53-.17.77l-.16.07a14.31,14.31,0,0,0,.62-5.07,3.47,3.47,0,0,0-1.29-2.24A3.1,3.1,0,0,0,54,37.11l-.32.07,2.56-10.32-7,1.24L46.54,38.7l-.77.14,2.63-10.6-7,1.24L38.7,40.09h-.05l0-.13L32,41.2l-2.66,8.63-.21.09a14.47,14.47,0,0,0,.62-5.11,2.8,2.8,0,0,0-1.57-2.16,4.85,4.85,0,0,0-2.93-.21,8.52,8.52,0,0,0-1.64.46v0l-4,.7.25-1-1.95,1.06a2.49,2.49,0,0,1-.69.25,2.43,2.43,0,0,1-.93,0l-.09-.08c-.19-.19-.38-.37-.53-.55l0,0a1.26,1.26,0,0,1-.36-.62,1,1,0,0,1,.06-.5,4.29,4.29,0,0,0,1.28,0,5.76,5.76,0,0,0,2.89-1.47,5.5,5.5,0,0,0,1.72-2.9A4.24,4.24,0,0,0,21.33,36,2.47,2.47,0,0,0,19.79,34,5,5,0,0,0,17,33.89a9.21,9.21,0,0,0-5.28,2.59l-1.65-.62-.1,0a7.13,7.13,0,0,0-3.11-.13A9.61,9.61,0,0,0,3,37.3l0,0a2,2,0,0,0-.84,2,1.82,1.82,0,0,0,.7,1.23,1.34,1.34,0,0,0,1,.22c.21,0,.26-.06.84-.42l.65-.4a4.61,4.61,0,0,1,1.39-.64,2.86,2.86,0,0,1,1.36.45l1,.51a8.39,8.39,0,0,0-.48,1.37,5.37,5.37,0,0,0-.31,3.06,7.54,7.54,0,0,0,.27,1.09,11.43,11.43,0,0,0-1.41.77,12.19,12.19,0,0,0-5.44,7.41,6.42,6.42,0,0,0-.16,2.76A4.2,4.2,0,0,0,4.27,60h0a7.08,7.08,0,0,0,2.64.48,10.71,10.71,0,0,0,1.81-.17,12,12,0,0,0,5.12-2.21A12.56,12.56,0,0,0,15.13,57l-2,8,7-1.24,1.5-6a3.65,3.65,0,0,0,.86-.07,6.15,6.15,0,0,0,2.9-1.44A9.45,9.45,0,0,0,27,54.47a2.6,2.6,0,0,0,1.33.06,5,5,0,0,0,.76-.19,3.58,3.58,0,0,0,.81,1,2.91,2.91,0,0,0,2.37.6,11.13,11.13,0,0,0,4.65-2.15,2.88,2.88,0,0,0,2.17.89,3.37,3.37,0,0,0,.69-.07,12,12,0,0,0,5.34-2.67,3.16,3.16,0,0,0,1.11.81,52.38,52.38,0,0,0-7.85,2.75l-.08,0A78.26,78.26,0,0,0,20.35,65.64c-2.58,1.91-4.53,3.53-5.71,4.55-2.34,2-2.6,2.37-2.37,3l.34.9.9-.29a72.65,72.65,0,0,1,14-2.54c3.16-.34,4.28-.48,4.85-.88,14-9.8,29.72-15.66,44.37-16.51a38.08,38.08,0,0,1,7.35.19l1,.18c1.8.33,4,.75,5.41-.12s2.61-4.76,3.2-7c.1-.41.28-1,.28-1l4-16.44ZM17.58,38.07l-.14-.77.14.77Zm0,.19,0-.17,0,.17ZM12.69,56.52a10.14,10.14,0,0,1-4.3,1.85A6.12,6.12,0,0,1,5,58.17a2.29,2.29,0,0,1-1.48-1.83,4.56,4.56,0,0,1,.13-1.94,10.17,10.17,0,0,1,4.6-6.25,5.81,5.81,0,0,1,1.8-.85l1.21-.21L10.78,46a7.58,7.58,0,0,1-.51-1.65,3.39,3.39,0,0,1,.22-2l0-.08,0-.08a9.52,9.52,0,0,1,.75-1.91l.43-.86L9,38a8.88,8.88,0,0,0-1.07-.45,5.34,5.34,0,0,1,1.52.17c.73.28,1.49.57,2.27.85l.67.24.43-.57a6.9,6.9,0,0,1,4.54-2.4,3.2,3.2,0,0,1,1.69,0,.57.57,0,0,1,.37.5,2.28,2.28,0,0,1-.08.93,3.38,3.38,0,0,1-.35,1,1.52,1.52,0,0,0,0-.64,1.41,1.41,0,0,0-1.72-1.21,4.47,4.47,0,0,0-2.76,2l-.91,1.24,1.51.29a8.25,8.25,0,0,0,1.52.2l-.35.08a2.07,2.07,0,0,1-1.15-.08l-.8-.31-.41.76A3.8,3.8,0,0,0,13.37,43a3.23,3.23,0,0,0,.86,1.61c.21.24.43.45.64.65s.17.16.25.25l.17.16.21.08a3.82,3.82,0,0,0,1.23.18l-.37.1L15,46.3l.82,1.18a2.4,2.4,0,0,1,.4,1,8.1,8.1,0,0,1-.33,2.87l-.3,1.28A7,7,0,0,1,12.69,56.52Zm10-10.61-1.82,7.16a3,3,0,0,0-.06,1.39,1.5,1.5,0,0,0,.47.89,1.3,1.3,0,0,0,1,.32l-.11,0a2.09,2.09,0,0,1-1,0l-1-.29L18.54,62l-2.79.49,4.24-17,1.58-.28,1.12.55S22.66,45.85,22.64,45.91Zm6,6.53a4,4,0,0,1-.66.18l-.27,0a.32.32,0,0,1-.13,0,0,0,0,0,0,0,0l-.85-1.49-.84,1.49a7.46,7.46,0,0,1-1.74,2.06,5.11,5.11,0,0,1-1.19.77,3.36,3.36,0,0,0,1.29-2.14l1.83-7.22V46a1.46,1.46,0,0,0,0-.52,1.33,1.33,0,0,0-.75-1l-.11,0,.34-.07a3.07,3.07,0,0,1,1.77.06.88.88,0,0,1,.49.74,14,14,0,0,1-.65,4.56,2.09,2.09,0,0,0-.06,1A1.51,1.51,0,0,0,28.68,52,2.42,2.42,0,0,0,28.63,52.44ZM40.35,41.49l2.59-10.31,2.86-.51L43.24,41h0l-1.77,7.1-2.23-2,1.14-4.57ZM33.48,42.9l2.43-.45L34.5,47.17l-2-1ZM31.91,54a.94.94,0,0,1-.8-.18,1.73,1.73,0,0,1-.31-.35,11,11,0,0,0,2.77-3,2.29,2.29,0,0,0,0,.53,1.4,1.4,0,0,0,.65,1,1.54,1.54,0,0,0,1.07.16,3.14,3.14,0,0,0,.74-.23V52A9.84,9.84,0,0,1,31.91,54Zm4.51-4.72a4.92,4.92,0,0,1-.7.58L37.49,44l.27,0Zm3,3.39a1.37,1.37,0,0,1-1-.13v0a8.4,8.4,0,0,0,2.63-3.82l.38-.55-.32,1.27a1.55,1.55,0,0,0,0,.6,1.16,1.16,0,0,0,.66.88,1.41,1.41,0,0,0,.85.08,3.45,3.45,0,0,0,.88-.28A9.61,9.61,0,0,1,39.41,52.67Zm5-5.43c0,.13-.06.26-.08.39l-.14.14a7.44,7.44,0,0,1-.85.74l1.46-5.84.79-.13ZM74.12,35l7,2.48a.64.64,0,0,1,.43.57l-.91,3.71a2.34,2.34,0,0,0-.06,1,1.38,1.38,0,0,0,.66,1,1.55,1.55,0,0,0,1.06.16,3.77,3.77,0,0,0,.91-.31,9.54,9.54,0,0,1-4.28,2.13c-1.11.2-1.27-.2-1.37-.77a2.39,2.39,0,0,1,.05-1l1.43-5.67a1.3,1.3,0,0,0,0-.66,1.43,1.43,0,0,0-.9-1.07A1.89,1.89,0,0,0,77,36.3c-.48.09-1.12.46-1.41,1.73a10.76,10.76,0,0,1-1.25,3l-1.43-1.3ZM71.73,47.18a11.71,11.71,0,0,0,3-3.33,13.31,13.31,0,0,0,1.45-2l-.4,1.57a4.47,4.47,0,0,0-.07,1.81,2.69,2.69,0,0,0,2.82,2.43,5.77,5.77,0,0,0,.8-.07,11.7,11.7,0,0,0,5.35-2.7c.15-.12.3-.24.44-.37a4.37,4.37,0,0,0,.44.27,5.92,5.92,0,0,0,2.74.18c-.19,1.74-.59,3.33-1,3.63A21,21,0,0,1,84,48.47c-1.27-.1-2.58-.22-3.59-.19-4,.11-7.78.32-11.2.61A14.7,14.7,0,0,0,71.73,47.18Zm-7-1L67,37.25l2.49-.42L67.78,44a2.09,2.09,0,0,0-.06,1,1.37,1.37,0,0,0,1.61,1.15l-.13.53A8.55,8.55,0,0,1,66,48c-.29,0-.3,0-.36-.15l-.55-1.64-.69.82A4.84,4.84,0,0,0,64.71,46.14ZM61,38.23l2.37-.42-1.06,4.24-2-1ZM61.31,46a3,3,0,0,0,0,1.16,1.44,1.44,0,0,0,.59,1,1.4,1.4,0,0,0,1,.21l.16,0a2.75,2.75,0,0,1-1,.4,4,4,0,0,1-2.28-.06,1,1,0,0,1-.5-.45A10.82,10.82,0,0,0,61.31,46Zm-3.75,3.2a2.84,2.84,0,0,0,.86.93c-1.74.27-3.37.56-4.89.85A8.58,8.58,0,0,0,55,49.5a2.78,2.78,0,0,0,1.35.07A6.05,6.05,0,0,0,57.56,49.22ZM54.32,39a1.22,1.22,0,0,1,1,.17,1.55,1.55,0,0,1,.55,1c.07.39.08,1.5-.65,4.52a2.09,2.09,0,0,0-.06,1A1.55,1.55,0,0,0,57.08,47c0,.11,0,.23,0,.34a4,4,0,0,1-1,.33l-.27,0c-.09,0-.13,0-.13,0a.08.08,0,0,0,0,0l-.84-1.47L54,47.64a6.7,6.7,0,0,1-2.23,2.27l-.17.11a4.16,4.16,0,0,0,.76-1.69l1.82-7.22,0-.09a1.53,1.53,0,0,0,0-.53,1.35,1.35,0,0,0-.55-.87,1.38,1.38,0,0,0-.34-.18A3.2,3.2,0,0,1,54.32,39ZM48.6,47.2l.15-.56L47,45l3.78-15.19,2.85-.5-3,12.19h0l-1.69,6.64a2.91,2.91,0,0,0-.06,1.38,1.36,1.36,0,0,0,1.38,1.22,5.8,5.8,0,0,1-1.11.32c-1.53.27-2.25,0-2.61-.42A7.9,7.9,0,0,0,48.6,47.2Zm43.47-1.55c0,.1-.18.66-.28,1.05-.85,3.2-1.89,5.52-2.36,5.82-.72.46-2.78.08-4-.15l-1.08-.19A39.48,39.48,0,0,0,76.59,52c-15,.87-31.1,6.85-45.35,16.84a30.53,30.53,0,0,1-4,.56A97,97,0,0,0,16.75,71c4.3-3.61,13-10.18,22.21-13.63l.2-.09c3.18-1.47,15.53-6.31,41.28-7h.28c.87,0,2,.09,3.09.19a19.07,19.07,0,0,0,3.89.1c2-.39,2.48-4.32,2.57-6.63l0-1.21-1.19.22a11.21,11.21,0,0,1-2.61.2,9.48,9.48,0,0,0,1.08-1.55,1.27,1.27,0,0,0,1.15.72,1.24,1.24,0,0,0,.27,0c.91-.16,1.57-1,2-2.41l1.36-5.45,0-.09a1.68,1.68,0,0,0,0-.52,1.41,1.41,0,0,0-1.77-1.1,2,2,0,0,0-1.65,1.55l-1.23,4.9-1.76-1.64a10.38,10.38,0,0,1,.4-1,8.92,8.92,0,0,1,2.73-3.35,5,5,0,0,1,2.27-.71,2.55,2.55,0,0,1,1.49.6l.43.27.47-.19c.35-.14.47-.32.61-.79l1-.18Z" style="fill:#fff"/><path d="M33.72,38.75a2.87,2.87,0,0,0,1.46.09,4.62,4.62,0,0,0,1.9-.79,3.16,3.16,0,0,0,1.35-1.75,1.29,1.29,0,0,0,0-.61,1.08,1.08,0,0,0-.79-.88,2.86,2.86,0,0,0-1.46-.09,4.59,4.59,0,0,0-1.89.83A3.2,3.2,0,0,0,33,37.26a1.59,1.59,0,0,0,0,.64A1.08,1.08,0,0,0,33.72,38.75Zm59.82-7.27s-.17.74-.19.74a3.49,3.49,0,0,0-1.92-.75,5.79,5.79,0,0,0-2.85.83,9.77,9.77,0,0,0-3.12,3.78,13.45,13.45,0,0,0-1.19,5,2.43,2.43,0,0,0,0,.47,4.38,4.38,0,0,1-2.14,1.38c-.34.06-.54,0-.59-.35a1.14,1.14,0,0,1,0-.57l.9-3.68a.75.75,0,0,0,0-.43,1.62,1.62,0,0,0-1-1.33l-8-2.84L70.78,44.33a3.51,3.51,0,0,1-1.5.8c-.34.06-.54,0-.59-.35a1.14,1.14,0,0,1,0-.57l2-8.59-4.57.77-2.43,9.5c-.23.92-.56,1.44-1,1.52-.28.05-.44-.09-.5-.4a2.33,2.33,0,0,1,.07-1l2.35-9.39-4.47.79-1.73,6.95c-.1.42-.18.81-.25,1.18A3.22,3.22,0,0,1,57,46c-.52.09-.79-.07-.86-.45a1.28,1.28,0,0,1,0-.57A15.09,15.09,0,0,0,56.87,40a2.5,2.5,0,0,0-.93-1.63,2.15,2.15,0,0,0-1.78-.35,4.5,4.5,0,0,0-1.95.94l2.71-10.93L50,28.94,45.37,47.46a4.9,4.9,0,0,0-.13.62l-.37.38A5.1,5.1,0,0,1,42.44,50c-.24,0-.35,0-.38-.18a.35.35,0,0,1,0-.18l2-7.84,1.36-.24.46-1.77-1.36.24,2.63-10.6-5,.87L39.5,40.93l-1.27.22-.46,1.78,1.3-.23L37.3,49.78a4.51,4.51,0,0,1-2.15,1.39c-.35.06-.54-.05-.59-.35a1.36,1.36,0,0,1,0-.58l2.71-9L32.73,42l-2.6,8.44a3.39,3.39,0,0,1-1.21.49c-.52.09-.79-.07-.86-.45a1.27,1.27,0,0,1,0-.57,14.84,14.84,0,0,0,.67-5c-.25-1.39-1.36-1.94-3.38-1.58a5.31,5.31,0,0,0-3.34,1.79l.26-1.11-3.1.55L14.45,63.73l4.88-.86,1.57-6.3a2.92,2.92,0,0,0,1.42.07,5.18,5.18,0,0,0,2.45-1.24,8.28,8.28,0,0,0,1.95-2.32c.26.45.71.61,1.42.49a5.08,5.08,0,0,0,1.5-.53v.05a2.52,2.52,0,0,0,.86,1.47,1.88,1.88,0,0,0,1.58.39A11.11,11.11,0,0,0,37,52.46a.93.93,0,0,0,.15-.13,2,2,0,0,0,.75,1,2.21,2.21,0,0,0,1.7.3,11,11,0,0,0,4.91-2.49c.3-.24.58-.49.84-.73.49,1.43,1.8,2,4,1.57a8.66,8.66,0,0,0,5.51-3.86c.25.45.71.62,1.42.49a5.11,5.11,0,0,0,1.88-.76v0c.29,1.64,1.67,2.24,4.09,1.81a4.27,4.27,0,0,0,2.57-1.58,1.14,1.14,0,0,0,1.44.8,10.61,10.61,0,0,0,4.91-2.49,10.35,10.35,0,0,0,2.77-3.15,11.8,11.8,0,0,0,2.69-5c.13-.63.36-1,.63-1a1,1,0,0,1,.58.11.49.49,0,0,1,.35.36.26.26,0,0,1,0,.18l-1.44,5.75a3.46,3.46,0,0,0-.07,1.42Q77,47,79.11,46.63A10.71,10.71,0,0,0,84,44.14c.39-.32.74-.63,1.06-.94a3.85,3.85,0,0,0,.86.71c1.28.76,3.42-.08,3.42-.08s-.71,6.14-2.38,6a72.54,72.54,0,0,0-10.82-.59C47.51,51.31,39,56.26,38.62,56.41c-13.43,5-25.95,16.71-25.4,16.5,7-2.78,17-2.93,18.09-3.66C46.4,58.61,65.93,52.64,79.61,52.64c3.92,0,7.32,1.08,9.39.71A3.36,3.36,0,0,0,91.5,51c.83-2.38,1.14-3.69,1.24-4s.28-1,.28-1l3.66-15ZM25.12,45.83,23.3,53.05c-.25,1-.6,1.55-1.12,1.64-.24,0-.4-.1-.46-.41a2.13,2.13,0,0,1,0-1l1.83-7.18a1,1,0,0,1,.88-.83c.37-.06.6,0,.65.31A.46.46,0,0,1,25.12,45.83Zm28.09-5-1.82,7.22c-.25,1-.61,1.55-1.12,1.65-.24,0-.4-.11-.46-.42a2.09,2.09,0,0,1,0-1l1.83-7.19a1,1,0,0,1,.88-.82c.37-.07.6,0,.65.3A.71.71,0,0,1,53.21,40.86ZM91.4,34.13,90,39.58c-.28,1-.67,1.6-1.18,1.69-.24,0-.4-.07-.46-.38a2.1,2.1,0,0,1,.08-.93l1.39-5.52a1,1,0,0,1,.87-.83c.38-.06.61,0,.65.31A.58.58,0,0,1,91.4,34.13ZM16.5,52.81l.3-1.28a8.7,8.7,0,0,0,.34-3.27,3.19,3.19,0,0,0-.56-1.34A2.61,2.61,0,0,0,18,46.29l.46-1.81a3.29,3.29,0,0,1-1,.36,3.24,3.24,0,0,1-1.59-.07c-.3-.3-.6-.57-.86-.87a2.14,2.14,0,0,1-.62-1.13,2.88,2.88,0,0,1,.45-1.8,3.1,3.1,0,0,0,1.68.13,4.93,4.93,0,0,0,2.42-1.24,4.52,4.52,0,0,0,1.41-2.4,3.22,3.22,0,0,0,.08-1.32c-.21-1.19-1.27-1.63-3.19-1.3a7.88,7.88,0,0,0-5.14,2.78l-2.3-.86a6.1,6.1,0,0,0-2.69-.12,8.74,8.74,0,0,0-3.48,1.45,1,1,0,0,0-.45,1c.09.51.3.72.61.67l1.14-.7a5.48,5.48,0,0,1,1.73-.76,3.64,3.64,0,0,1,2,.53l1.86.94a10.23,10.23,0,0,0-.82,2.12,4.34,4.34,0,0,0-.29,2.58,8.53,8.53,0,0,0,.58,1.87,6.48,6.48,0,0,0-2.15,1,11.16,11.16,0,0,0-5,6.83,5.54,5.54,0,0,0-.15,2.35,3.25,3.25,0,0,0,2.07,2.56,7.08,7.08,0,0,0,3.92.26,11,11,0,0,0,4.71-2A7.93,7.93,0,0,0,16.5,52.81Zm.95-15.51a.47.47,0,0,1,.61.42,1,1,0,0,1-.09.51,1.53,1.53,0,0,1-1.26.85,6.11,6.11,0,0,1-1.4-.17A3.59,3.59,0,0,1,17.45,37.3Zm-5.6,16.47a4.33,4.33,0,0,1-1.29,2.1A4,4,0,0,1,8.48,57a1.54,1.54,0,0,1-1.33-.36,2.07,2.07,0,0,1-.69-1.29,3.13,3.13,0,0,1,0-1.1,7.68,7.68,0,0,1,1.55-3.19A11.35,11.35,0,0,1,11,48.87a26,26,0,0,1,1,2.74A4,4,0,0,1,11.85,53.77Z" style="fill:#eab649"/><path d="M31.15,63.36a1.52,1.52,0,0,0-.89-.65,1.69,1.69,0,0,0-1,.08,8.9,8.9,0,0,0-1.24.78l-1.6,1.14,3.1,4.37,1-.71-1.17-1.65.65-.46a7.61,7.61,0,0,0,1-.8,1.8,1.8,0,0,0,.37-.58,1.48,1.48,0,0,0,.12-.73A1.6,1.6,0,0,0,31.15,63.36Zm-1,1.6a3.52,3.52,0,0,1-.75.63L28.8,66l-.88-1.24.49-.34a5.69,5.69,0,0,1,.74-.48,1,1,0,0,1,.54-.1.64.64,0,0,1,.44.28.72.72,0,0,1,.13.42A.82.82,0,0,1,30.1,65Zm1-3,2.63,4.23,1-.61L32.1,61.33Zm18.06-4.08-.43-1.28,2.69-.91-.27-.8-2.69.92-.36-1,2.89-1-.27-.8-4,1.36L48.38,59l4.08-1.39-.27-.79Zm-9.84-.42.09,5.12-.75-.36a5.46,5.46,0,0,0-1-.39,2.38,2.38,0,0,0-.73-.07,1.93,1.93,0,0,0,.75-.94,1.23,1.23,0,0,0-.11-1,1.32,1.32,0,0,0-.6-.57,1.24,1.24,0,0,0-.81-.1,4.61,4.61,0,0,0-1.21.52l-2.11,1.16,2.4,4.35,1-.55-1-1.82.2-.11a2.79,2.79,0,0,1,.53-.23.91.91,0,0,1,.4,0,5.49,5.49,0,0,1,.88.35l1.25.55,1-.56,1-.45-.06-1.22,2.06-1,.92.82,1.13-.53-4.15-3.56Zm-2.81,3.71a4.77,4.77,0,0,1-.87.55l-.74.41L34.32,61l.78-.43a7.52,7.52,0,0,1,.74-.38.71.71,0,0,1,.47,0,.56.56,0,0,1,.33.28.59.59,0,0,1,.07.38A.58.58,0,0,1,36.54,61.14Zm3.92-.91-.08-2,1.48,1.34ZM56.67,55a1.27,1.27,0,0,0-.42-.69,1.56,1.56,0,0,0-.73-.31,5.6,5.6,0,0,0-1.26,0,3,3,0,0,1-1.08,0,.37.37,0,0,1-.24-.23.36.36,0,0,1,.09-.34,1.42,1.42,0,0,1,.69-.38,1.16,1.16,0,0,1,.73,0,.77.77,0,0,1,.44.43L56,53a1.36,1.36,0,0,0-.83-.89,2.58,2.58,0,0,0-1.62,0,3.21,3.21,0,0,0-1,.46,1.52,1.52,0,0,0-.54.66,1.18,1.18,0,0,0,0,.74,1.24,1.24,0,0,0,.76.81A3.53,3.53,0,0,0,54,55l.92,0a1.08,1.08,0,0,1,.44.09.42.42,0,0,1,.19.26.55.55,0,0,1-.13.52,1.41,1.41,0,0,1-.73.42,1.36,1.36,0,0,1-.85,0,1.12,1.12,0,0,1-.57-.57l-1,.38a1.78,1.78,0,0,0,1,1,2.65,2.65,0,0,0,1.67,0,3.28,3.28,0,0,0,1.11-.5,1.59,1.59,0,0,0,.58-.72A1.32,1.32,0,0,0,56.67,55ZM46.2,54.52,42,56.19l.32.78,1.56-.62,1.54,3.83,1.06-.43L45,55.92l1.56-.62Z" style="fill:#fff"/><path d="M53.43,82.67l-.38-4-.6.06.43,4.55L55.72,83l0-.53ZM36,75.18a4.75,4.75,0,0,0-.59-.38L33.92,74l-2.23,4,.53.29.91-1.62,1,.58a1.81,1.81,0,0,0,1.36.3,1.47,1.47,0,0,0,1-1.3,1.14,1.14,0,0,0-.1-.56A1.37,1.37,0,0,0,36,75.18Zm-.24,1.35a.75.75,0,0,1-.52.41,1.22,1.22,0,0,1-.83-.21l-1-.58.79-1.42,1,.57a2.85,2.85,0,0,1,.48.31.69.69,0,0,1,.2.42A.83.83,0,0,1,35.77,76.53Zm5.9,3.66a1.76,1.76,0,0,1-.62,1,1.26,1.26,0,0,1-1,0,1.28,1.28,0,0,1-.58-.34.8.8,0,0,1-.23-.52,2.31,2.31,0,0,1,.15-.87L40.17,77l-.57-.18-.79,2.52a3,3,0,0,0-.17,1.14,1.27,1.27,0,0,0,.37.79,2.16,2.16,0,0,0,.93.52,2,2,0,0,0,1.1.08,1.37,1.37,0,0,0,.73-.47,3,3,0,0,0,.47-1L43,77.86l-.58-.18Zm6.75.63a1.2,1.2,0,0,0,.52-.38,1,1,0,0,0,.2-.53,1.15,1.15,0,0,0-.12-.62,1.07,1.07,0,0,0-.45-.47,2.13,2.13,0,0,0-.82-.21L46,78.45,45.61,83l1.74.16a3,3,0,0,0,.74,0,1.39,1.39,0,0,0,.52-.18,1.27,1.27,0,0,0,.37-.39,1.33,1.33,0,0,0,.19-.58,1.07,1.07,0,0,0-.16-.71A1.13,1.13,0,0,0,48.42,80.82ZM46.59,79l.91.08a2.79,2.79,0,0,1,.69.13.57.57,0,0,1,.28.27.71.71,0,0,1,.08.41.66.66,0,0,1-.16.38.7.7,0,0,1-.37.2,2.21,2.21,0,0,1-.57,0l-1-.09Zm1.83,3.27a.61.61,0,0,1-.25.23,1,1,0,0,1-.36.09,2,2,0,0,1-.41,0l-1.13-.11L46.41,81l1.05.1a1.92,1.92,0,0,1,.66.14.69.69,0,0,1,.34.29.88.88,0,0,1,.09.46A.86.86,0,0,1,48.42,82.31Zm9.93-4.5,1.15,4.42.58-.15-1.14-4.42ZM77.44,64l3,2-4.31,0-.35.51L79.51,69l.33-.48-3-2,4.32,0,.35-.51-3.78-2.57Zm7-5.49-1.57-.63-.72,1.79.5.2.5-1.24.79.31a2.3,2.3,0,0,1,.08.65,2,2,0,0,1-.14.77,1.91,1.91,0,0,1-.5.72,1.44,1.44,0,0,1-.8.34,2.34,2.34,0,0,1-1-.19,2.37,2.37,0,0,1-.79-.5,1.52,1.52,0,0,1-.31-.44,1.17,1.17,0,0,1-.13-.57,2,2,0,0,1,.15-.72,1.66,1.66,0,0,1,.34-.54,1.08,1.08,0,0,1,.46-.28,1.47,1.47,0,0,1,.61,0l.06-.57a2,2,0,0,0-.82.05,1.52,1.52,0,0,0-.65.41,2.34,2.34,0,0,0-.48.78A2.52,2.52,0,0,0,79.76,60a1.81,1.81,0,0,0,.5,1.06,2.74,2.74,0,0,0,1,.72,2.68,2.68,0,0,0,1.23.2,2,2,0,0,0,1.09-.46,2.74,2.74,0,0,0,.72-1,2.66,2.66,0,0,0,.19-1A3.25,3.25,0,0,0,84.39,58.47ZM73.13,69.36l3.28,3.18.42-.43-3.28-3.18Zm-7,8.36a1.36,1.36,0,0,0-.73-.18,6.11,6.11,0,0,0-1,.15,2.32,2.32,0,0,1-1,.07.48.48,0,0,1-.33-.29.6.6,0,0,1,0-.55,1.29,1.29,0,0,1,.64-.51,1.27,1.27,0,0,1,.82-.12.92.92,0,0,1,.56.46l.51-.27a1.46,1.46,0,0,0-.5-.57,1.32,1.32,0,0,0-.74-.19,2.2,2.2,0,0,0-.89.22,2.08,2.08,0,0,0-.7.48,1.23,1.23,0,0,0-.33.65,1.17,1.17,0,0,0,.08.67,1.15,1.15,0,0,0,.38.46,1.22,1.22,0,0,0,.62.18,3.7,3.7,0,0,0,.92-.1c.43-.08.7-.12.84-.13a1,1,0,0,1,.48.08.59.59,0,0,1,.27.29.64.64,0,0,1,0,.41.91.91,0,0,1-.24.42,2,2,0,0,1-1.21.51,1.09,1.09,0,0,1-.57-.14,1.29,1.29,0,0,1-.4-.43l-.5.28a1.48,1.48,0,0,0,.57.64,1.45,1.45,0,0,0,.82.23,3,3,0,0,0,1-.26,2.12,2.12,0,0,0,.73-.53,1.35,1.35,0,0,0,.34-.7,1.21,1.21,0,0,0-.09-.71A1.13,1.13,0,0,0,66.15,77.72Zm4-5.7,1.1,1.51-1.92,1.4-1.1-1.51-.49.35,2.69,3.69.49-.35-1.27-1.74L71.61,74l1.27,1.74.49-.36-2.69-3.69Z" style="fill:#fff"/></svg>