<svg xmlns="http://www.w3.org/2000/svg" viewBox="0 0 100 100"><title>the-age</title><circle cx="50" cy="50" r="50" transform="translate(-11.16 14.51) rotate(-14.88)" style="fill:#231f20"/><path d="M59.8,53.85c0-.47,0-1,0-1.44h.06c.15,1.32.24,2.57.5,3.94l.79,5.56h2.45V50.79H62.19v5.65c0,1.08.06,2.18.05,3.25v.6h-.07a55.3,55.3,0,0,0-.78-6.3l-.47-3.2H58.44V61.91H59.8Zm9,3.86H67.14v2.41c0,.56-.17.68-.5.68s-.51-.12-.51-.68V52.58c0-.56.17-.68.51-.68s.5.12.5.68v2.27H68.8V52.44c0-1.45-1.14-1.87-2.17-1.87s-2.16.42-2.16,1.87v7.82c0,1.45,1.14,1.87,2.16,1.87s2.17-.42,2.17-1.87Zm2.2,4.2h1.66V57.68l1.7-6.89H72.82l-.6,2.5a13.28,13.28,0,0,0-.28,2.33h0a19.08,19.08,0,0,0-.36-2.41L71,50.79H69.3l1.7,7ZM50,64.65h-.3V63.29h-.53v3.56h.53V65.12H50v1.73h.53V63.29H50Zm-4.62,2.2h.53V65.13h.63v-.46h-.63v-.92h.66v-.46H45.39Zm6-1.72H52v-.46h-.62v-.92H52v-.46H50.85v3.56H52v-.47h-.66Zm-3.87-1.38H48v3.1h.53v-3.1H49v-.46H47.51Zm-3.11-.53c-.32,0-.69.13-.69.6v2.5c0,.46.37.6.69.6s.7-.14.7-.6v-2.5C45.1,63.35,44.73,63.22,44.4,63.22Zm.17,3c0,.18-.06.22-.16.22s-.17,0-.17-.22V63.86c0-.18.06-.22.17-.22s.16,0,.16.22Zm24.16.37c0,1.81,2.67,3.35,2.67,4.91v1.17c0,.56-.17.69-.5.69s-.52-.13-.52-.69V70.3H68.73v2.56c0,1.45,1.14,1.87,2.15,1.87s2.18-.42,2.18-1.87v-2c0-1.12-2.68-3.53-2.68-4.33V65.19c0-.56.18-.69.52-.69s.5.13.5.69v2.2h1.66V65.05c0-1.45-1.14-1.88-2.18-1.88s-2.15.43-2.15,1.88Zm-3.21-3.25h-2V74.52h2.36a1.91,1.91,0,0,0,2-2V65.91C67.85,64,67.16,63.39,65.52,63.39Zm.68,9c0,.72-.21.83-.63.83h-.39V64.72h.39c.42,0,.63.11.63.83ZM55.27,63.17c-1,0-2.15.43-2.15,1.88v7.81A1.79,1.79,0,0,0,55,74.73a1.59,1.59,0,0,0,1.5-.92h0l0,.71h.83V69H55.13V70.3h.66v2.42c0,.56-.17.69-.5.69s-.52-.13-.52-.69V65.19c0-.56.18-.69.52-.69s.5.13.5.69v2.22h1.66V65.05C57.45,63.6,56.3,63.17,55.27,63.17Zm7.38,1.88c0-1.45-1.14-1.88-2.17-1.88s-2.16.43-2.16,1.88v7.81c0,1.45,1.14,1.87,2.16,1.87s2.17-.42,2.17-1.87ZM61,72.72c0,.56-.17.69-.5.69s-.51-.13-.51-.69V65.19c0-.56.17-.69.51-.69s.5.13.5.69ZM72.2,86.89h1.56V85.16H72.2Zm.73-11.12H68.39v1.45h1.45v9.67h1.65V77.22h1.44Zm-6.58,5.65c0,1.08.07,2.17.05,3.25v.6h-.06a57.65,57.65,0,0,0-.78-6.3l-.47-3.2H62.6V86.89H64V78.83c0-.47,0-1,0-1.44H64c.14,1.32.23,2.56.5,3.94l.78,5.56h2.45V75.77H66.35Zm-6.43.11h1.95V80.08H59.92V77.22h2V75.77H58.26V86.89H62V85.44H59.92Z" style="fill:#fff"/><path d="M28.8,38,26.09,61.86H29.3l.77-6.45h2.51l.67,6.45h3.58L34.12,38ZM30.41,52.3l.87-9.91h.23l.74,9.91ZM42.59,37.58c-2.18,0-4.62.9-4.62,4V58.32a3.84,3.84,0,0,0,4.11,4,3.43,3.43,0,0,0,3.22-2h.06l.1,1.5h1.78V50h-5v2.84h1.4V58c0,1.2-.37,1.47-1.07,1.47s-1.1-.27-1.1-1.47V41.89c0-1.2.36-1.47,1.1-1.47s1.07.27,1.07,1.47v4.75h3.55v-5C47.24,38.48,44.79,37.58,42.59,37.58ZM52.76,58.75V50.39h4.18V47.28H52.76V41.15h4.35V38h-7.9V61.86h8V58.75ZM29.88,36h3.55V15.27h3.08V12.16H26.77v3.11h3.11ZM41.49,24.41h2V36H47V12.16H43.46v9.13h-2V12.16H37.94V36h3.55Zm15.56,8.46H52.63V24.51h4.18V21.39H52.63V15.27H57V12.16H49.09V36h8Z" style="fill:#f7941d"/></svg>